STARTFONT 2.1
COMMENT /*
COMMENT  * A 16x16 fixed-width font based on the Commodore 64 character set
COMMENT  * Generated by Quadventure by Softintheheadware
COMMENT  */
FONT -Softintheheadware-Quadventure-Medium-R-Normal--16-160-72-72-M-160-ISO8859-1
SIZE 16 72 72
FONTBOUNDINGBOX 16 16 0 0
STARTPROPERTIES 2
FONT_ASCENT 16
FONT_DESCENT 0
ENDPROPERTIES
CHARS 256
STARTCHAR U+0020
ENCODING 32
SWIDTH 1600 0
DWIDTH 16 0
BBX 16 16 0 0
BITMAP
0000
0000
0000
0000
0000
0000
0000
0000
0000
0000
0000
0000
0000
0000
0000
0000
ENDCHAR
STARTCHAR U+263A
ENCODING 9786
SWIDTH 1600 0
DWIDTH 16 0
BBX 16 16 0 0
BITMAP
0000
0000
0000
0000
0000
0000
0000
0000
0000
0000
0000
0000
0000
0000
0000
0000
ENDCHAR
STARTCHAR U+263B
ENCODING 9787
SWIDTH 1600 0
DWIDTH 16 0
BBX 16 16 0 0
BITMAP
0000
0000
0000
0000
0000
0000
0000
0000
0000
0000
0000
0000
0000
0000
0000
0000
ENDCHAR
STARTCHAR U+2665
ENCODING 9829
SWIDTH 1600 0
DWIDTH 16 0
BBX 16 16 0 0
BITMAP
0000
0000
0000
0000
0000
0000
0000
0000
0000
0000
0000
0000
0000
0000
0000
0000
ENDCHAR
STARTCHAR U+2666
ENCODING 9830
SWIDTH 1600 0
DWIDTH 16 0
BBX 16 16 0 0
BITMAP
0000
0000
0000
0000
0000
0000
0000
0000
0000
0000
0000
0000
0000
0000
0000
0000
ENDCHAR
STARTCHAR U+2663
ENCODING 9827
SWIDTH 1600 0
DWIDTH 16 0
BBX 16 16 0 0
BITMAP
0000
0000
0000
0000
0000
0000
0000
0000
0000
0000
0000
0000
0000
0000
0000
0000
ENDCHAR
STARTCHAR U+2660
ENCODING 9824
SWIDTH 1600 0
DWIDTH 16 0
BBX 16 16 0 0
BITMAP
0000
0000
0000
0000
0000
0000
0000
0000
0000
0000
0000
0000
0000
0000
0000
0000
ENDCHAR
STARTCHAR U+2022
ENCODING 8226
SWIDTH 1600 0
DWIDTH 16 0
BBX 16 16 0 0
BITMAP
0000
0000
0000
0000
0000
0000
0000
0000
0000
0000
0000
0000
0000
0000
0000
0000
ENDCHAR
STARTCHAR U+25D8
ENCODING 9688
SWIDTH 1600 0
DWIDTH 16 0
BBX 16 16 0 0
BITMAP
0000
0000
0000
0000
0000
0000
0000
0000
0000
0000
0000
0000
0000
0000
0000
0000
ENDCHAR
STARTCHAR U+25CB
ENCODING 9675
SWIDTH 1600 0
DWIDTH 16 0
BBX 16 16 0 0
BITMAP
0000
0000
0000
0000
0000
0000
0000
0000
0000
0000
0000
0000
0000
0000
0000
0000
ENDCHAR
STARTCHAR U+25D9
ENCODING 9689
SWIDTH 1600 0
DWIDTH 16 0
BBX 16 16 0 0
BITMAP
0000
0000
0000
0000
0000
0000
0000
0000
0000
0000
0000
0000
0000
0000
0000
0000
ENDCHAR
STARTCHAR U+2642
ENCODING 9794
SWIDTH 1600 0
DWIDTH 16 0
BBX 16 16 0 0
BITMAP
0000
0000
0000
0000
0000
0000
0000
0000
0000
0000
0000
0000
0000
0000
0000
0000
ENDCHAR
STARTCHAR U+2640
ENCODING 9792
SWIDTH 1600 0
DWIDTH 16 0
BBX 16 16 0 0
BITMAP
0000
0000
0000
0000
0000
0000
0000
0000
0000
0000
0000
0000
0000
0000
0000
0000
ENDCHAR
STARTCHAR U+266A
ENCODING 9834
SWIDTH 1600 0
DWIDTH 16 0
BBX 16 16 0 0
BITMAP
0000
0000
0000
0000
0000
0000
0000
0000
0000
0000
0000
0000
0000
0000
0000
0000
ENDCHAR
STARTCHAR U+266B
ENCODING 9835
SWIDTH 1600 0
DWIDTH 16 0
BBX 16 16 0 0
BITMAP
0000
0000
0000
0000
0000
0000
0000
0000
0000
0000
0000
0000
0000
0000
0000
0000
ENDCHAR
STARTCHAR U+263C
ENCODING 9788
SWIDTH 1600 0
DWIDTH 16 0
BBX 16 16 0 0
BITMAP
0000
0000
0000
0000
0000
0000
0000
0000
0000
0000
0000
0000
0000
0000
0000
0000
ENDCHAR
STARTCHAR U+25BA
ENCODING 9658
SWIDTH 1600 0
DWIDTH 16 0
BBX 16 16 0 0
BITMAP
0000
0000
0000
0000
0000
0000
0000
0000
0000
0000
0000
0000
0000
0000
0000
0000
ENDCHAR
STARTCHAR U+25C4
ENCODING 9668
SWIDTH 1600 0
DWIDTH 16 0
BBX 16 16 0 0
BITMAP
0000
0000
0000
0000
0000
0000
0000
0000
0000
0000
0000
0000
0000
0000
0000
0000
ENDCHAR
STARTCHAR U+2195
ENCODING 8597
SWIDTH 1600 0
DWIDTH 16 0
BBX 16 16 0 0
BITMAP
0000
0000
0000
0000
0000
0000
0000
0000
0000
0000
0000
0000
0000
0000
0000
0000
ENDCHAR
STARTCHAR U+203C
ENCODING 8252
SWIDTH 1600 0
DWIDTH 16 0
BBX 16 16 0 0
BITMAP
0000
0000
0000
0000
0000
0000
0000
0000
0000
0000
0000
0000
0000
0000
0000
0000
ENDCHAR
STARTCHAR U+00B6
ENCODING 182
SWIDTH 1600 0
DWIDTH 16 0
BBX 16 16 0 0
BITMAP
0000
0000
0000
0000
0000
0000
0000
0000
0000
0000
0000
0000
0000
0000
0000
0000
ENDCHAR
STARTCHAR U+00A7
ENCODING 167
SWIDTH 1600 0
DWIDTH 16 0
BBX 16 16 0 0
BITMAP
0000
0000
0000
0000
0000
0000
0000
0000
0000
0000
0000
0000
0000
0000
0000
0000
ENDCHAR
STARTCHAR U+25AC
ENCODING 9644
SWIDTH 1600 0
DWIDTH 16 0
BBX 16 16 0 0
BITMAP
0000
0000
0000
0000
0000
0000
0000
0000
0000
0000
0000
0000
0000
0000
0000
0000
ENDCHAR
STARTCHAR U+21A8
ENCODING 8616
SWIDTH 1600 0
DWIDTH 16 0
BBX 16 16 0 0
BITMAP
0000
0000
0000
0000
0000
0000
0000
0000
0000
0000
0000
0000
0000
0000
0000
0000
ENDCHAR
STARTCHAR U+2191
ENCODING 8593
SWIDTH 1600 0
DWIDTH 16 0
BBX 16 16 0 0
BITMAP
0000
0000
0000
0000
0000
0000
0000
0000
0000
0000
0000
0000
0000
0000
0000
0000
ENDCHAR
STARTCHAR U+2193
ENCODING 8595
SWIDTH 1600 0
DWIDTH 16 0
BBX 16 16 0 0
BITMAP
0000
0000
0000
0000
0000
0000
0000
0000
0000
0000
0000
0000
0000
0000
0000
0000
ENDCHAR
STARTCHAR U+2192
ENCODING 8594
SWIDTH 1600 0
DWIDTH 16 0
BBX 16 16 0 0
BITMAP
0000
0000
0000
0000
0000
0000
0000
0000
0000
0000
0000
0000
0000
0000
0000
0000
ENDCHAR
STARTCHAR U+2190
ENCODING 8592
SWIDTH 1600 0
DWIDTH 16 0
BBX 16 16 0 0
BITMAP
0000
0000
0000
0000
0000
0000
0000
0000
0000
0000
0000
0000
0000
0000
0000
0000
ENDCHAR
STARTCHAR U+221F
ENCODING 8735
SWIDTH 1600 0
DWIDTH 16 0
BBX 16 16 0 0
BITMAP
0000
0000
0000
0000
0000
0000
0000
0000
0000
0000
0000
0000
0000
0000
0000
0000
ENDCHAR
STARTCHAR U+2194
ENCODING 8596
SWIDTH 1600 0
DWIDTH 16 0
BBX 16 16 0 0
BITMAP
0000
0000
0000
0000
0000
0000
0000
0000
0000
0000
0000
0000
0000
0000
0000
0000
ENDCHAR
STARTCHAR U+25B2
ENCODING 9650
SWIDTH 1600 0
DWIDTH 16 0
BBX 16 16 0 0
BITMAP
0000
0000
0000
0000
0000
0000
0000
0000
0000
0000
0000
0000
0000
0000
0000
0000
ENDCHAR
STARTCHAR U+25BC
ENCODING 9660
SWIDTH 1600 0
DWIDTH 16 0
BBX 16 16 0 0
BITMAP
0000
0000
0000
0000
0000
0000
0000
0000
0000
0000
0000
0000
0000
0000
0000
0000
ENDCHAR
STARTCHAR U+0020
ENCODING 32
SWIDTH 1600 0
DWIDTH 16 0
BBX 16 16 0 0
BITMAP
0000
0000
0000
0000
0000
0000
0000
0000
0000
0000
0000
0000
0000
0000
0000
0000
ENDCHAR
STARTCHAR U+0021
ENCODING 33
SWIDTH 1600 0
DWIDTH 16 0
BBX 16 16 0 0
BITMAP
03C0
03C0
03C0
03C0
03C0
03C0
03C0
03C0
0000
0000
0000
0000
03C0
03C0
0000
0000
ENDCHAR
STARTCHAR U+0022
ENCODING 34
SWIDTH 1600 0
DWIDTH 16 0
BBX 16 16 0 0
BITMAP
3C3C
3C3C
3C3C
3C3C
3C3C
3C3C
0000
0000
0000
0000
0000
0000
0000
0000
0000
0000
ENDCHAR
STARTCHAR U+0023
ENCODING 35
SWIDTH 1600 0
DWIDTH 16 0
BBX 16 16 0 0
BITMAP
3C3C
3C3C
3C3C
3C3C
FFFF
FFFF
3C3C
3C3C
FFFF
FFFF
3C3C
3C3C
3C3C
3C3C
0000
0000
ENDCHAR
STARTCHAR U+0024
ENCODING 36
SWIDTH 1600 0
DWIDTH 16 0
BBX 16 16 0 0
BITMAP
03C0
03C0
0FFC
0FFC
3C00
3C00
0FF0
0FF0
003C
003C
3FF0
3FF0
03C0
03C0
0000
0000
ENDCHAR
STARTCHAR U+0025
ENCODING 37
SWIDTH 1600 0
DWIDTH 16 0
BBX 16 16 0 0
BITMAP
3C0C
3C0C
3C3C
3C3C
00F0
00F0
03C0
03C0
0F00
0F00
3C3C
3C3C
303C
303C
0000
0000
ENDCHAR
STARTCHAR U+0026
ENCODING 38
SWIDTH 1600 0
DWIDTH 16 0
BBX 16 16 0 0
BITMAP
0FF0
0FF0
3C3C
3C3C
0FF0
0FF0
0FC0
0FC0
3C3F
3C3F
3C3C
3C3C
0FFF
0FFF
0000
0000
ENDCHAR
STARTCHAR U+0027
ENCODING 39
SWIDTH 1600 0
DWIDTH 16 0
BBX 16 16 0 0
BITMAP
003C
003C
00F0
00F0
03C0
03C0
0000
0000
0000
0000
0000
0000
0000
0000
0000
0000
ENDCHAR
STARTCHAR U+0028
ENCODING 40
SWIDTH 1600 0
DWIDTH 16 0
BBX 16 16 0 0
BITMAP
00F0
00F0
03C0
03C0
0F00
0F00
0F00
0F00
0F00
0F00
03C0
03C0
00F0
00F0
0000
0000
ENDCHAR
STARTCHAR U+0029
ENCODING 41
SWIDTH 1600 0
DWIDTH 16 0
BBX 16 16 0 0
BITMAP
0F00
0F00
03C0
03C0
00F0
00F0
00F0
00F0
00F0
00F0
03C0
03C0
0F00
0F00
0000
0000
ENDCHAR
STARTCHAR U+002A
ENCODING 42
SWIDTH 1600 0
DWIDTH 16 0
BBX 16 16 0 0
BITMAP
0000
0000
3C3C
3C3C
0FF0
0FF0
FFFF
FFFF
0FF0
0FF0
3C3C
3C3C
0000
0000
0000
0000
ENDCHAR
STARTCHAR U+002B
ENCODING 43
SWIDTH 1600 0
DWIDTH 16 0
BBX 16 16 0 0
BITMAP
0000
0000
03C0
03C0
03C0
03C0
3FFC
3FFC
03C0
03C0
03C0
03C0
0000
0000
0000
0000
ENDCHAR
STARTCHAR U+002C
ENCODING 44
SWIDTH 1600 0
DWIDTH 16 0
BBX 16 16 0 0
BITMAP
0000
0000
0000
0000
0000
0000
0000
0000
0000
0000
03C0
03C0
03C0
03C0
0F00
0F00
ENDCHAR
STARTCHAR U+002D
ENCODING 45
SWIDTH 1600 0
DWIDTH 16 0
BBX 16 16 0 0
BITMAP
0000
0000
0000
0000
0000
0000
3FFC
3FFC
0000
0000
0000
0000
0000
0000
0000
0000
ENDCHAR
STARTCHAR U+002E
ENCODING 46
SWIDTH 1600 0
DWIDTH 16 0
BBX 16 16 0 0
BITMAP
0000
0000
0000
0000
0000
0000
0000
0000
0000
0000
03C0
03C0
03C0
03C0
0000
0000
ENDCHAR
STARTCHAR U+002F
ENCODING 47
SWIDTH 1600 0
DWIDTH 16 0
BBX 16 16 0 0
BITMAP
0000
0000
000F
000F
003C
003C
00F0
00F0
03C0
03C0
0F00
0F00
3C00
3C00
0000
0000
ENDCHAR
STARTCHAR U+0030
ENCODING 48
SWIDTH 1600 0
DWIDTH 16 0
BBX 16 16 0 0
BITMAP
0FF0
0FF0
3C3C
3C3C
3CFC
3CFC
3F3C
3F3C
3C3C
3C3C
3C3C
3C3C
0FF0
0FF0
0000
0000
ENDCHAR
STARTCHAR U+0031
ENCODING 49
SWIDTH 1600 0
DWIDTH 16 0
BBX 16 16 0 0
BITMAP
03C0
03C0
03C0
03C0
0FC0
0FC0
03C0
03C0
03C0
03C0
03C0
03C0
3FFC
3FFC
0000
0000
ENDCHAR
STARTCHAR U+0032
ENCODING 50
SWIDTH 1600 0
DWIDTH 16 0
BBX 16 16 0 0
BITMAP
0FF0
0FF0
3C3C
3C3C
003C
003C
00F0
00F0
0F00
0F00
3C00
3C00
3FFC
3FFC
0000
0000
ENDCHAR
STARTCHAR U+0033
ENCODING 51
SWIDTH 1600 0
DWIDTH 16 0
BBX 16 16 0 0
BITMAP
0FF0
0FF0
3C3C
3C3C
003C
003C
03F0
03F0
003C
003C
3C3C
3C3C
0FF0
0FF0
0000
0000
ENDCHAR
STARTCHAR U+0034
ENCODING 52
SWIDTH 1600 0
DWIDTH 16 0
BBX 16 16 0 0
BITMAP
003C
003C
00FC
00FC
03FC
03FC
3C3C
3C3C
3FFF
3FFF
003C
003C
003C
003C
0000
0000
ENDCHAR
STARTCHAR U+0035
ENCODING 53
SWIDTH 1600 0
DWIDTH 16 0
BBX 16 16 0 0
BITMAP
3FFC
3FFC
3C00
3C00
3FF0
3FF0
003C
003C
003C
003C
3C3C
3C3C
0FF0
0FF0
0000
0000
ENDCHAR
STARTCHAR U+0036
ENCODING 54
SWIDTH 1600 0
DWIDTH 16 0
BBX 16 16 0 0
BITMAP
0FF0
0FF0
3C3C
3C3C
3C00
3C00
3FF0
3FF0
3C3C
3C3C
3C3C
3C3C
0FF0
0FF0
0000
0000
ENDCHAR
STARTCHAR U+0037
ENCODING 55
SWIDTH 1600 0
DWIDTH 16 0
BBX 16 16 0 0
BITMAP
3FFC
3FFC
3C3C
3C3C
00F0
00F0
03C0
03C0
03C0
03C0
03C0
03C0
03C0
03C0
0000
0000
ENDCHAR
STARTCHAR U+0038
ENCODING 56
SWIDTH 1600 0
DWIDTH 16 0
BBX 16 16 0 0
BITMAP
0FF0
0FF0
3C3C
3C3C
3C3C
3C3C
0FF0
0FF0
3C3C
3C3C
3C3C
3C3C
0FF0
0FF0
0000
0000
ENDCHAR
STARTCHAR U+0039
ENCODING 57
SWIDTH 1600 0
DWIDTH 16 0
BBX 16 16 0 0
BITMAP
0FF0
0FF0
3C3C
3C3C
3C3C
3C3C
0FFC
0FFC
003C
003C
3C3C
3C3C
0FF0
0FF0
0000
0000
ENDCHAR
STARTCHAR U+003A
ENCODING 58
SWIDTH 1600 0
DWIDTH 16 0
BBX 16 16 0 0
BITMAP
0000
0000
0000
0000
03C0
03C0
0000
0000
0000
0000
03C0
03C0
0000
0000
0000
0000
ENDCHAR
STARTCHAR U+003B
ENCODING 59
SWIDTH 1600 0
DWIDTH 16 0
BBX 16 16 0 0
BITMAP
0000
0000
0000
0000
03C0
03C0
0000
0000
0000
0000
03C0
03C0
03C0
03C0
0F00
0F00
ENDCHAR
STARTCHAR U+003C
ENCODING 60
SWIDTH 1600 0
DWIDTH 16 0
BBX 16 16 0 0
BITMAP
00FC
00FC
03C0
03C0
0F00
0F00
3C00
3C00
0F00
0F00
03C0
03C0
00FC
00FC
0000
0000
ENDCHAR
STARTCHAR U+003D
ENCODING 61
SWIDTH 1600 0
DWIDTH 16 0
BBX 16 16 0 0
BITMAP
0000
0000
0000
0000
3FFC
3FFC
0000
0000
3FFC
3FFC
0000
0000
0000
0000
0000
0000
ENDCHAR
STARTCHAR U+003E
ENCODING 62
SWIDTH 1600 0
DWIDTH 16 0
BBX 16 16 0 0
BITMAP
3F00
3F00
03C0
03C0
00F0
00F0
003C
003C
00F0
00F0
03C0
03C0
3F00
3F00
0000
0000
ENDCHAR
STARTCHAR U+003F
ENCODING 63
SWIDTH 1600 0
DWIDTH 16 0
BBX 16 16 0 0
BITMAP
0FF0
0FF0
3C3C
3C3C
003C
003C
00F0
00F0
03C0
03C0
0000
0000
03C0
03C0
0000
0000
ENDCHAR
STARTCHAR U+0040
ENCODING 64
SWIDTH 1600 0
DWIDTH 16 0
BBX 16 16 0 0
BITMAP
0FF0
0FF0
3C3C
3C3C
3CFC
3CFC
3CFC
3CFC
3C00
3C00
3C0C
3C0C
0FF0
0FF0
0000
0000
ENDCHAR
STARTCHAR U+0041
ENCODING 65
SWIDTH 1600 0
DWIDTH 16 0
BBX 16 16 0 0
BITMAP
03C0
03C0
0FF0
0FF0
3C3C
3C3C
3FFC
3FFC
3C3C
3C3C
3C3C
3C3C
3C3C
3C3C
0000
0000
ENDCHAR
STARTCHAR U+0042
ENCODING 66
SWIDTH 1600 0
DWIDTH 16 0
BBX 16 16 0 0
BITMAP
3FF0
3FF0
3C3C
3C3C
3C3C
3C3C
3FF0
3FF0
3C3C
3C3C
3C3C
3C3C
3FF0
3FF0
0000
0000
ENDCHAR
STARTCHAR U+0043
ENCODING 67
SWIDTH 1600 0
DWIDTH 16 0
BBX 16 16 0 0
BITMAP
0FF0
0FF0
3C3C
3C3C
3C00
3C00
3C00
3C00
3C00
3C00
3C3C
3C3C
0FF0
0FF0
0000
0000
ENDCHAR
STARTCHAR U+0044
ENCODING 68
SWIDTH 1600 0
DWIDTH 16 0
BBX 16 16 0 0
BITMAP
3FC0
3FC0
3CF0
3CF0
3C3C
3C3C
3C3C
3C3C
3C3C
3C3C
3CF0
3CF0
3FC0
3FC0
0000
0000
ENDCHAR
STARTCHAR U+0045
ENCODING 69
SWIDTH 1600 0
DWIDTH 16 0
BBX 16 16 0 0
BITMAP
3FFC
3FFC
3C00
3C00
3C00
3C00
3FC0
3FC0
3C00
3C00
3C00
3C00
3FFC
3FFC
0000
0000
ENDCHAR
STARTCHAR U+0046
ENCODING 70
SWIDTH 1600 0
DWIDTH 16 0
BBX 16 16 0 0
BITMAP
3FFC
3FFC
3C00
3C00
3C00
3C00
3FC0
3FC0
3C00
3C00
3C00
3C00
3C00
3C00
0000
0000
ENDCHAR
STARTCHAR U+0047
ENCODING 71
SWIDTH 1600 0
DWIDTH 16 0
BBX 16 16 0 0
BITMAP
0FF0
0FF0
3C3C
3C3C
3C00
3C00
3CFC
3CFC
3C3C
3C3C
3C3C
3C3C
0FF0
0FF0
0000
0000
ENDCHAR
STARTCHAR U+0048
ENCODING 72
SWIDTH 1600 0
DWIDTH 16 0
BBX 16 16 0 0
BITMAP
3C3C
3C3C
3C3C
3C3C
3C3C
3C3C
3FFC
3FFC
3C3C
3C3C
3C3C
3C3C
3C3C
3C3C
0000
0000
ENDCHAR
STARTCHAR U+0049
ENCODING 73
SWIDTH 1600 0
DWIDTH 16 0
BBX 16 16 0 0
BITMAP
0FF0
0FF0
03C0
03C0
03C0
03C0
03C0
03C0
03C0
03C0
03C0
03C0
0FF0
0FF0
0000
0000
ENDCHAR
STARTCHAR U+004A
ENCODING 74
SWIDTH 1600 0
DWIDTH 16 0
BBX 16 16 0 0
BITMAP
03FC
03FC
00F0
00F0
00F0
00F0
00F0
00F0
00F0
00F0
3CF0
3CF0
0FC0
0FC0
0000
0000
ENDCHAR
STARTCHAR U+004B
ENCODING 75
SWIDTH 1600 0
DWIDTH 16 0
BBX 16 16 0 0
BITMAP
3C3C
3C3C
3CF0
3CF0
3FC0
3FC0
3F00
3F00
3FC0
3FC0
3CF0
3CF0
3C3C
3C3C
0000
0000
ENDCHAR
STARTCHAR U+004C
ENCODING 76
SWIDTH 1600 0
DWIDTH 16 0
BBX 16 16 0 0
BITMAP
3C00
3C00
3C00
3C00
3C00
3C00
3C00
3C00
3C00
3C00
3C00
3C00
3FFC
3FFC
0000
0000
ENDCHAR
STARTCHAR U+004D
ENCODING 77
SWIDTH 1600 0
DWIDTH 16 0
BBX 16 16 0 0
BITMAP
3C0F
3C0F
3F3F
3F3F
3FFF
3FFF
3CCF
3CCF
3C0F
3C0F
3C0F
3C0F
3C0F
3C0F
0000
0000
ENDCHAR
STARTCHAR U+004E
ENCODING 78
SWIDTH 1600 0
DWIDTH 16 0
BBX 16 16 0 0
BITMAP
3C3C
3C3C
3F3C
3F3C
3FFC
3FFC
3FFC
3FFC
3CFC
3CFC
3C3C
3C3C
3C3C
3C3C
0000
0000
ENDCHAR
STARTCHAR U+004F
ENCODING 79
SWIDTH 1600 0
DWIDTH 16 0
BBX 16 16 0 0
BITMAP
0FF0
0FF0
3C3C
3C3C
3C3C
3C3C
3C3C
3C3C
3C3C
3C3C
3C3C
3C3C
0FF0
0FF0
0000
0000
ENDCHAR
STARTCHAR U+0050
ENCODING 80
SWIDTH 1600 0
DWIDTH 16 0
BBX 16 16 0 0
BITMAP
3FF0
3FF0
3C3C
3C3C
3C3C
3C3C
3FF0
3FF0
3C00
3C00
3C00
3C00
3C00
3C00
0000
0000
ENDCHAR
STARTCHAR U+0051
ENCODING 81
SWIDTH 1600 0
DWIDTH 16 0
BBX 16 16 0 0
BITMAP
0FF0
0FF0
3C3C
3C3C
3C3C
3C3C
3C3C
3C3C
3C3C
3C3C
0FF0
0FF0
00FC
00FC
0000
0000
ENDCHAR
STARTCHAR U+0052
ENCODING 82
SWIDTH 1600 0
DWIDTH 16 0
BBX 16 16 0 0
BITMAP
3FF0
3FF0
3C3C
3C3C
3C3C
3C3C
3FF0
3FF0
3FC0
3FC0
3CF0
3CF0
3C3C
3C3C
0000
0000
ENDCHAR
STARTCHAR U+0053
ENCODING 83
SWIDTH 1600 0
DWIDTH 16 0
BBX 16 16 0 0
BITMAP
0FF0
0FF0
3C3C
3C3C
3C00
3C00
0FF0
0FF0
003C
003C
3C3C
3C3C
0FF0
0FF0
0000
0000
ENDCHAR
STARTCHAR U+0054
ENCODING 84
SWIDTH 1600 0
DWIDTH 16 0
BBX 16 16 0 0
BITMAP
3FFC
3FFC
03C0
03C0
03C0
03C0
03C0
03C0
03C0
03C0
03C0
03C0
03C0
03C0
0000
0000
ENDCHAR
STARTCHAR U+0055
ENCODING 85
SWIDTH 1600 0
DWIDTH 16 0
BBX 16 16 0 0
BITMAP
3C3C
3C3C
3C3C
3C3C
3C3C
3C3C
3C3C
3C3C
3C3C
3C3C
3C3C
3C3C
0FF0
0FF0
0000
0000
ENDCHAR
STARTCHAR U+0056
ENCODING 86
SWIDTH 1600 0
DWIDTH 16 0
BBX 16 16 0 0
BITMAP
3C3C
3C3C
3C3C
3C3C
3C3C
3C3C
3C3C
3C3C
3C3C
3C3C
0FF0
0FF0
03C0
03C0
0000
0000
ENDCHAR
STARTCHAR U+0057
ENCODING 87
SWIDTH 1600 0
DWIDTH 16 0
BBX 16 16 0 0
BITMAP
3C0F
3C0F
3C0F
3C0F
3C0F
3C0F
3CCF
3CCF
3FFF
3FFF
3F3F
3F3F
3C0F
3C0F
0000
0000
ENDCHAR
STARTCHAR U+0058
ENCODING 88
SWIDTH 1600 0
DWIDTH 16 0
BBX 16 16 0 0
BITMAP
3C3C
3C3C
3C3C
3C3C
0FF0
0FF0
03C0
03C0
0FF0
0FF0
3C3C
3C3C
3C3C
3C3C
0000
0000
ENDCHAR
STARTCHAR U+0059
ENCODING 89
SWIDTH 1600 0
DWIDTH 16 0
BBX 16 16 0 0
BITMAP
3C3C
3C3C
3C3C
3C3C
3C3C
3C3C
0FF0
0FF0
03C0
03C0
03C0
03C0
03C0
03C0
0000
0000
ENDCHAR
STARTCHAR U+005A
ENCODING 90
SWIDTH 1600 0
DWIDTH 16 0
BBX 16 16 0 0
BITMAP
3FFC
3FFC
003C
003C
00F0
00F0
03C0
03C0
0F00
0F00
3C00
3C00
3FFC
3FFC
0000
0000
ENDCHAR
STARTCHAR U+005B
ENCODING 91
SWIDTH 1600 0
DWIDTH 16 0
BBX 16 16 0 0
BITMAP
0FF0
0FF0
0F00
0F00
0F00
0F00
0F00
0F00
0F00
0F00
0F00
0F00
0FF0
0FF0
0000
0000
ENDCHAR
STARTCHAR U+005C
ENCODING 92
SWIDTH 1600 0
DWIDTH 16 0
BBX 16 16 0 0
BITMAP
0000
0000
3C00
3C00
0F00
0F00
03C0
03C0
00F0
00F0
003C
003C
000F
000F
0000
0000
ENDCHAR
STARTCHAR U+005D
ENCODING 93
SWIDTH 1600 0
DWIDTH 16 0
BBX 16 16 0 0
BITMAP
0FF0
0FF0
00F0
00F0
00F0
00F0
00F0
00F0
00F0
00F0
00F0
00F0
0FF0
0FF0
0000
0000
ENDCHAR
STARTCHAR U+005E
ENCODING 94
SWIDTH 1600 0
DWIDTH 16 0
BBX 16 16 0 0
BITMAP
03C0
03C0
0FF0
0FF0
3C3C
3C3C
0000
0000
0000
0000
0000
0000
0000
0000
0000
0000
ENDCHAR
STARTCHAR U+005F
ENCODING 95
SWIDTH 1600 0
DWIDTH 16 0
BBX 16 16 0 0
BITMAP
0000
0000
0000
0000
0000
0000
0000
0000
0000
0000
3FFC
3FFC
0000
0000
0000
0000
ENDCHAR
STARTCHAR U+0060
ENCODING 96
SWIDTH 1600 0
DWIDTH 16 0
BBX 16 16 0 0
BITMAP
0000
0000
0F00
0F00
03C0
03C0
0000
0000
0000
0000
0000
0000
0000
0000
0000
0000
ENDCHAR
STARTCHAR U+0061
ENCODING 97
SWIDTH 1600 0
DWIDTH 16 0
BBX 16 16 0 0
BITMAP
0000
0000
0000
0000
0FF0
0FF0
003C
003C
0FFC
0FFC
3C3C
3C3C
0FFC
0FFC
0000
0000
ENDCHAR
STARTCHAR U+0062
ENCODING 98
SWIDTH 1600 0
DWIDTH 16 0
BBX 16 16 0 0
BITMAP
0000
0000
3C00
3C00
3C00
3C00
3FF0
3FF0
3C3C
3C3C
3C3C
3C3C
3FF0
3FF0
0000
0000
ENDCHAR
STARTCHAR U+0063
ENCODING 99
SWIDTH 1600 0
DWIDTH 16 0
BBX 16 16 0 0
BITMAP
0000
0000
0000
0000
0FF0
0FF0
3C00
3C00
3C00
3C00
3C00
3C00
0FF0
0FF0
0000
0000
ENDCHAR
STARTCHAR U+0064
ENCODING 100
SWIDTH 1600 0
DWIDTH 16 0
BBX 16 16 0 0
BITMAP
0000
0000
003C
003C
003C
003C
0FFC
0FFC
3C3C
3C3C
3C3C
3C3C
0FFC
0FFC
0000
0000
ENDCHAR
STARTCHAR U+0065
ENCODING 101
SWIDTH 1600 0
DWIDTH 16 0
BBX 16 16 0 0
BITMAP
0000
0000
0000
0000
0FF0
0FF0
3C3C
3C3C
3FFC
3FFC
3C00
3C00
0FF0
0FF0
0000
0000
ENDCHAR
STARTCHAR U+0066
ENCODING 102
SWIDTH 1600 0
DWIDTH 16 0
BBX 16 16 0 0
BITMAP
0000
0000
00FC
00FC
03C0
03C0
0FFC
0FFC
03C0
03C0
03C0
03C0
03C0
03C0
0000
0000
ENDCHAR
STARTCHAR U+0067
ENCODING 103
SWIDTH 1600 0
DWIDTH 16 0
BBX 16 16 0 0
BITMAP
0000
0000
0000
0000
0FFC
0FFC
3C3C
3C3C
3C3C
3C3C
0FFC
0FFC
003C
003C
3FF0
3FF0
ENDCHAR
STARTCHAR U+0068
ENCODING 104
SWIDTH 1600 0
DWIDTH 16 0
BBX 16 16 0 0
BITMAP
0000
0000
3C00
3C00
3C00
3C00
3FF0
3FF0
3C3C
3C3C
3C3C
3C3C
3C3C
3C3C
0000
0000
ENDCHAR
STARTCHAR U+0069
ENCODING 105
SWIDTH 1600 0
DWIDTH 16 0
BBX 16 16 0 0
BITMAP
0000
0000
03C0
03C0
0000
0000
0FC0
0FC0
03C0
03C0
03C0
03C0
0FF0
0FF0
0000
0000
ENDCHAR
STARTCHAR U+006A
ENCODING 106
SWIDTH 1600 0
DWIDTH 16 0
BBX 16 16 0 0
BITMAP
0000
0000
003C
003C
0000
0000
003C
003C
003C
003C
003C
003C
003C
003C
0FF0
0FF0
ENDCHAR
STARTCHAR U+006B
ENCODING 107
SWIDTH 1600 0
DWIDTH 16 0
BBX 16 16 0 0
BITMAP
0000
0000
3C00
3C00
3C00
3C00
3CF0
3CF0
3FC0
3FC0
3CF0
3CF0
3C3C
3C3C
0000
0000
ENDCHAR
STARTCHAR U+006C
ENCODING 108
SWIDTH 1600 0
DWIDTH 16 0
BBX 16 16 0 0
BITMAP
0000
0000
0FC0
0FC0
03C0
03C0
03C0
03C0
03C0
03C0
03C0
03C0
0FF0
0FF0
0000
0000
ENDCHAR
STARTCHAR U+006D
ENCODING 109
SWIDTH 1600 0
DWIDTH 16 0
BBX 16 16 0 0
BITMAP
0000
0000
0000
0000
3C3C
3C3C
3FFF
3FFF
3FFF
3FFF
3CCF
3CCF
3C0F
3C0F
0000
0000
ENDCHAR
STARTCHAR U+006E
ENCODING 110
SWIDTH 1600 0
DWIDTH 16 0
BBX 16 16 0 0
BITMAP
0000
0000
0000
0000
3FF0
3FF0
3C3C
3C3C
3C3C
3C3C
3C3C
3C3C
3C3C
3C3C
0000
0000
ENDCHAR
STARTCHAR U+006F
ENCODING 111
SWIDTH 1600 0
DWIDTH 16 0
BBX 16 16 0 0
BITMAP
0000
0000
0000
0000
0FF0
0FF0
3C3C
3C3C
3C3C
3C3C
3C3C
3C3C
0FF0
0FF0
0000
0000
ENDCHAR
STARTCHAR U+0070
ENCODING 112
SWIDTH 1600 0
DWIDTH 16 0
BBX 16 16 0 0
BITMAP
0000
0000
0000
0000
3FF0
3FF0
3C3C
3C3C
3C3C
3C3C
3FF0
3FF0
3C00
3C00
3C00
3C00
ENDCHAR
STARTCHAR U+0071
ENCODING 113
SWIDTH 1600 0
DWIDTH 16 0
BBX 16 16 0 0
BITMAP
0000
0000
0000
0000
0FFC
0FFC
3C3C
3C3C
3C3C
3C3C
0FFC
0FFC
003C
003C
003C
003C
ENDCHAR
STARTCHAR U+0072
ENCODING 114
SWIDTH 1600 0
DWIDTH 16 0
BBX 16 16 0 0
BITMAP
0000
0000
0000
0000
3FF0
3FF0
3C3C
3C3C
3C00
3C00
3C00
3C00
3C00
3C00
0000
0000
ENDCHAR
STARTCHAR U+0073
ENCODING 115
SWIDTH 1600 0
DWIDTH 16 0
BBX 16 16 0 0
BITMAP
0000
0000
0000
0000
0FFC
0FFC
3C00
3C00
0FF0
0FF0
003C
003C
3FF0
3FF0
0000
0000
ENDCHAR
STARTCHAR U+0074
ENCODING 116
SWIDTH 1600 0
DWIDTH 16 0
BBX 16 16 0 0
BITMAP
0000
0000
03C0
03C0
3FFC
3FFC
03C0
03C0
03C0
03C0
03C0
03C0
00FC
00FC
0000
0000
ENDCHAR
STARTCHAR U+0075
ENCODING 117
SWIDTH 1600 0
DWIDTH 16 0
BBX 16 16 0 0
BITMAP
0000
0000
0000
0000
3C3C
3C3C
3C3C
3C3C
3C3C
3C3C
3C3C
3C3C
0FFC
0FFC
0000
0000
ENDCHAR
STARTCHAR U+0076
ENCODING 118
SWIDTH 1600 0
DWIDTH 16 0
BBX 16 16 0 0
BITMAP
0000
0000
0000
0000
3C3C
3C3C
3C3C
3C3C
3C3C
3C3C
0FF0
0FF0
03C0
03C0
0000
0000
ENDCHAR
STARTCHAR U+0077
ENCODING 119
SWIDTH 1600 0
DWIDTH 16 0
BBX 16 16 0 0
BITMAP
0000
0000
0000
0000
3C0F
3C0F
3CCF
3CCF
3FFF
3FFF
0FFC
0FFC
0F3C
0F3C
0000
0000
ENDCHAR
STARTCHAR U+0078
ENCODING 120
SWIDTH 1600 0
DWIDTH 16 0
BBX 16 16 0 0
BITMAP
0000
0000
0000
0000
3C3C
3C3C
0FF0
0FF0
03C0
03C0
0FF0
0FF0
3C3C
3C3C
0000
0000
ENDCHAR
STARTCHAR U+0079
ENCODING 121
SWIDTH 1600 0
DWIDTH 16 0
BBX 16 16 0 0
BITMAP
0000
0000
0000
0000
3C3C
3C3C
3C3C
3C3C
3C3C
3C3C
0FFC
0FFC
00F0
00F0
3FC0
3FC0
ENDCHAR
STARTCHAR U+007A
ENCODING 122
SWIDTH 1600 0
DWIDTH 16 0
BBX 16 16 0 0
BITMAP
0000
0000
0000
0000
3FFC
3FFC
00F0
00F0
03C0
03C0
0F00
0F00
3FFC
3FFC
0000
0000
ENDCHAR
STARTCHAR U+007B
ENCODING 123
SWIDTH 1600 0
DWIDTH 16 0
BBX 16 16 0 0
BITMAP
03F0
03F0
0F00
0F00
0C00
0C00
3C00
3C00
0C00
0C00
0F00
0F00
03F0
03F0
0000
0000
ENDCHAR
STARTCHAR U+007C
ENCODING 124
SWIDTH 1600 0
DWIDTH 16 0
BBX 16 16 0 0
BITMAP
00C0
00C0
00C0
00C0
00C0
00C0
00C0
00C0
00C0
00C0
00C0
00C0
00C0
00C0
0000
0000
ENDCHAR
STARTCHAR U+007D
ENCODING 125
SWIDTH 1600 0
DWIDTH 16 0
BBX 16 16 0 0
BITMAP
0FC0
0FC0
00F0
00F0
0030
0030
003C
003C
0030
0030
00F0
00F0
0FC0
0FC0
0000
0000
ENDCHAR
STARTCHAR U+007E
ENCODING 126
SWIDTH 1600 0
DWIDTH 16 0
BBX 16 16 0 0
BITMAP
0000
0000
3C03
3C03
C30C
C30C
00F0
00F0
0000
0000
0000
0000
0000
0000
0000
0000
ENDCHAR
STARTCHAR U+2302
ENCODING 8962
SWIDTH 1600 0
DWIDTH 16 0
BBX 16 16 0 0
BITMAP
0000
0000
0000
0000
0000
0000
0000
0000
0000
0000
0000
0000
0000
0000
0000
0000
ENDCHAR
STARTCHAR U+00C7
ENCODING 199
SWIDTH 1600 0
DWIDTH 16 0
BBX 16 16 0 0
BITMAP
0000
0000
0000
0000
0000
0000
FFFF
FFFF
FFFF
FFFF
0000
0000
0000
0000
0000
0000
ENDCHAR
STARTCHAR U+00FC
ENCODING 252
SWIDTH 1600 0
DWIDTH 16 0
BBX 16 16 0 0
BITMAP
00C0
00C0
03F0
03F0
0FFC
0FFC
3FFF
3FFF
3FFF
3FFF
03F0
03F0
0FFC
0FFC
0000
0000
ENDCHAR
STARTCHAR U+00E9
ENCODING 233
SWIDTH 1600 0
DWIDTH 16 0
BBX 16 16 0 0
BITMAP
03C0
03C0
03C0
03C0
03C0
03C0
03C0
03C0
03C0
03C0
03C0
03C0
03C0
03C0
03C0
03C0
ENDCHAR
STARTCHAR U+00E2
ENCODING 226
SWIDTH 1600 0
DWIDTH 16 0
BBX 16 16 0 0
BITMAP
0000
0000
0000
0000
0000
0000
FFFF
FFFF
FFFF
FFFF
0000
0000
0000
0000
0000
0000
ENDCHAR
STARTCHAR U+00E4
ENCODING 228
SWIDTH 1600 0
DWIDTH 16 0
BBX 16 16 0 0
BITMAP
0000
0000
0000
0000
FFFF
FFFF
FFFF
FFFF
0000
0000
0000
0000
0000
0000
0000
0000
ENDCHAR
STARTCHAR U+00E0
ENCODING 224
SWIDTH 1600 0
DWIDTH 16 0
BBX 16 16 0 0
BITMAP
0000
0000
FFFF
FFFF
FFFF
FFFF
0000
0000
0000
0000
0000
0000
0000
0000
0000
0000
ENDCHAR
STARTCHAR U+00E5
ENCODING 229
SWIDTH 1600 0
DWIDTH 16 0
BBX 16 16 0 0
BITMAP
0000
0000
0000
0000
0000
0000
0000
0000
FFFF
FFFF
FFFF
FFFF
0000
0000
0000
0000
ENDCHAR
STARTCHAR U+00E7
ENCODING 231
SWIDTH 1600 0
DWIDTH 16 0
BBX 16 16 0 0
BITMAP
0F00
0F00
0F00
0F00
0F00
0F00
0F00
0F00
0F00
0F00
0F00
0F00
0F00
0F00
0F00
0F00
ENDCHAR
STARTCHAR U+00EA
ENCODING 234
SWIDTH 1600 0
DWIDTH 16 0
BBX 16 16 0 0
BITMAP
00F0
00F0
00F0
00F0
00F0
00F0
00F0
00F0
00F0
00F0
00F0
00F0
00F0
00F0
00F0
00F0
ENDCHAR
STARTCHAR U+00EB
ENCODING 235
SWIDTH 1600 0
DWIDTH 16 0
BBX 16 16 0 0
BITMAP
0000
0000
0000
0000
0000
0000
FC00
FC00
FF00
FF00
0FC0
0FC0
03C0
03C0
03C0
03C0
ENDCHAR
STARTCHAR U+00E8
ENCODING 232
SWIDTH 1600 0
DWIDTH 16 0
BBX 16 16 0 0
BITMAP
03C0
03C0
03C0
03C0
03F0
03F0
00FF
00FF
003F
003F
0000
0000
0000
0000
0000
0000
ENDCHAR
STARTCHAR U+00EF
ENCODING 239
SWIDTH 1600 0
DWIDTH 16 0
BBX 16 16 0 0
BITMAP
03C0
03C0
03C0
03C0
0FC0
0FC0
FF00
FF00
FC00
FC00
0000
0000
0000
0000
0000
0000
ENDCHAR
STARTCHAR U+00EE
ENCODING 238
SWIDTH 1600 0
DWIDTH 16 0
BBX 16 16 0 0
BITMAP
F000
F000
F000
F000
F000
F000
F000
F000
F000
F000
F000
F000
FFFF
FFFF
FFFF
FFFF
ENDCHAR
STARTCHAR U+00EC
ENCODING 236
SWIDTH 1600 0
DWIDTH 16 0
BBX 16 16 0 0
BITMAP
F000
F000
FC00
FC00
3F00
3F00
0FC0
0FC0
03F0
03F0
00FC
00FC
003F
003F
000F
000F
ENDCHAR
STARTCHAR U+00C4
ENCODING 196
SWIDTH 1600 0
DWIDTH 16 0
BBX 16 16 0 0
BITMAP
000F
000F
003F
003F
00FC
00FC
03F0
03F0
0FC0
0FC0
3F00
3F00
FC00
FC00
F000
F000
ENDCHAR
STARTCHAR U+00C5
ENCODING 197
SWIDTH 1600 0
DWIDTH 16 0
BBX 16 16 0 0
BITMAP
FFFF
FFFF
FFFF
FFFF
F000
F000
F000
F000
F000
F000
F000
F000
F000
F000
F000
F000
ENDCHAR
STARTCHAR U+00C9
ENCODING 201
SWIDTH 1600 0
DWIDTH 16 0
BBX 16 16 0 0
BITMAP
FFFF
FFFF
FFFF
FFFF
000F
000F
000F
000F
000F
000F
000F
000F
000F
000F
000F
000F
ENDCHAR
STARTCHAR U+00E6
ENCODING 230
SWIDTH 1600 0
DWIDTH 16 0
BBX 16 16 0 0
BITMAP
0000
0000
0FF0
0FF0
3FFC
3FFC
3FFC
3FFC
3FFC
3FFC
3FFC
3FFC
0FF0
0FF0
0000
0000
ENDCHAR
STARTCHAR U+00C6
ENCODING 198
SWIDTH 1600 0
DWIDTH 16 0
BBX 16 16 0 0
BITMAP
0000
0000
0000
0000
0000
0000
0000
0000
0000
0000
FFFF
FFFF
FFFF
FFFF
0000
0000
ENDCHAR
STARTCHAR U+00F4
ENCODING 244
SWIDTH 1600 0
DWIDTH 16 0
BBX 16 16 0 0
BITMAP
0F3C
0F3C
3FFF
3FFF
3FFF
3FFF
3FFF
3FFF
0FFC
0FFC
03F0
03F0
00C0
00C0
0000
0000
ENDCHAR
STARTCHAR U+00F6
ENCODING 246
SWIDTH 1600 0
DWIDTH 16 0
BBX 16 16 0 0
BITMAP
3C00
3C00
3C00
3C00
3C00
3C00
3C00
3C00
3C00
3C00
3C00
3C00
3C00
3C00
3C00
3C00
ENDCHAR
STARTCHAR U+00F2
ENCODING 242
SWIDTH 1600 0
DWIDTH 16 0
BBX 16 16 0 0
BITMAP
0000
0000
0000
0000
0000
0000
003F
003F
00FF
00FF
03F0
03F0
03C0
03C0
03C0
03C0
ENDCHAR
STARTCHAR U+00FB
ENCODING 251
SWIDTH 1600 0
DWIDTH 16 0
BBX 16 16 0 0
BITMAP
F00F
F00F
FC3F
FC3F
3FFC
3FFC
0FF0
0FF0
0FF0
0FF0
3FFC
3FFC
FC3F
FC3F
F00F
F00F
ENDCHAR
STARTCHAR U+00F9
ENCODING 249
SWIDTH 1600 0
DWIDTH 16 0
BBX 16 16 0 0
BITMAP
0000
0000
0FF0
0FF0
3FFC
3FFC
3C3C
3C3C
3C3C
3C3C
3FFC
3FFC
0FF0
0FF0
0000
0000
ENDCHAR
STARTCHAR U+00FF
ENCODING 255
SWIDTH 1600 0
DWIDTH 16 0
BBX 16 16 0 0
BITMAP
03C0
03C0
03C0
03C0
3C3C
3C3C
3C3C
3C3C
03C0
03C0
03C0
03C0
0FF0
0FF0
0000
0000
ENDCHAR
STARTCHAR U+00D6
ENCODING 214
SWIDTH 1600 0
DWIDTH 16 0
BBX 16 16 0 0
BITMAP
003C
003C
003C
003C
003C
003C
003C
003C
003C
003C
003C
003C
003C
003C
003C
003C
ENDCHAR
STARTCHAR U+00DC
ENCODING 220
SWIDTH 1600 0
DWIDTH 16 0
BBX 16 16 0 0
BITMAP
00C0
00C0
03F0
03F0
0FFC
0FFC
3FFF
3FFF
0FFC
0FFC
03F0
03F0
00C0
00C0
0000
0000
ENDCHAR
STARTCHAR U+00A2
ENCODING 162
SWIDTH 1600 0
DWIDTH 16 0
BBX 16 16 0 0
BITMAP
03C0
03C0
03C0
03C0
03C0
03C0
FFFF
FFFF
FFFF
FFFF
03C0
03C0
03C0
03C0
03C0
03C0
ENDCHAR
STARTCHAR U+00A3
ENCODING 163
SWIDTH 1600 0
DWIDTH 16 0
BBX 16 16 0 0
BITMAP
F000
F000
F000
F000
0F00
0F00
0F00
0F00
F000
F000
F000
F000
0F00
0F00
0F00
0F00
ENDCHAR
STARTCHAR U+00A5
ENCODING 165
SWIDTH 1600 0
DWIDTH 16 0
BBX 16 16 0 0
BITMAP
03C0
03C0
03C0
03C0
03C0
03C0
03C0
03C0
03C0
03C0
03C0
03C0
03C0
03C0
03C0
03C0
ENDCHAR
STARTCHAR U+20A7
ENCODING 8359
SWIDTH 1600 0
DWIDTH 16 0
BBX 16 16 0 0
BITMAP
0000
0000
0000
0000
000F
000F
0FFC
0FFC
3F3C
3F3C
0F3C
0F3C
0F3C
0F3C
0000
0000
ENDCHAR
STARTCHAR U+0192
ENCODING 402
SWIDTH 1600 0
DWIDTH 16 0
BBX 16 16 0 0
BITMAP
FFFF
FFFF
3FFF
3FFF
0FFF
0FFF
03FF
03FF
00FF
00FF
003F
003F
000F
000F
0003
0003
ENDCHAR
STARTCHAR U+00E1
ENCODING 225
SWIDTH 1600 0
DWIDTH 16 0
BBX 16 16 0 0
BITMAP
0000
0000
0000
0000
0000
0000
0000
0000
0000
0000
0000
0000
0000
0000
0000
0000
ENDCHAR
STARTCHAR U+00ED
ENCODING 237
SWIDTH 1600 0
DWIDTH 16 0
BBX 16 16 0 0
BITMAP
FF00
FF00
FF00
FF00
FF00
FF00
FF00
FF00
FF00
FF00
FF00
FF00
FF00
FF00
FF00
FF00
ENDCHAR
STARTCHAR U+00F3
ENCODING 243
SWIDTH 1600 0
DWIDTH 16 0
BBX 16 16 0 0
BITMAP
0000
0000
0000
0000
0000
0000
0000
0000
FFFF
FFFF
FFFF
FFFF
FFFF
FFFF
FFFF
FFFF
ENDCHAR
STARTCHAR U+00FA
ENCODING 250
SWIDTH 1600 0
DWIDTH 16 0
BBX 16 16 0 0
BITMAP
FFFF
FFFF
0000
0000
0000
0000
0000
0000
0000
0000
0000
0000
0000
0000
0000
0000
ENDCHAR
STARTCHAR U+00F1
ENCODING 241
SWIDTH 1600 0
DWIDTH 16 0
BBX 16 16 0 0
BITMAP
0000
0000
0000
0000
0000
0000
0000
0000
0000
0000
0000
0000
0000
0000
FFFF
FFFF
ENDCHAR
STARTCHAR U+00D1
ENCODING 209
SWIDTH 1600 0
DWIDTH 16 0
BBX 16 16 0 0
BITMAP
F000
F000
F000
F000
F000
F000
F000
F000
F000
F000
F000
F000
F000
F000
F000
F000
ENDCHAR
STARTCHAR U+00AA
ENCODING 170
SWIDTH 1600 0
DWIDTH 16 0
BBX 16 16 0 0
BITMAP
F0F0
F0F0
F0F0
F0F0
0F0F
0F0F
0F0F
0F0F
F0F0
F0F0
F0F0
F0F0
0F0F
0F0F
0F0F
0F0F
ENDCHAR
STARTCHAR U+00BA
ENCODING 186
SWIDTH 1600 0
DWIDTH 16 0
BBX 16 16 0 0
BITMAP
000F
000F
000F
000F
000F
000F
000F
000F
000F
000F
000F
000F
000F
000F
000F
000F
ENDCHAR
STARTCHAR U+00BF
ENCODING 191
SWIDTH 1600 0
DWIDTH 16 0
BBX 16 16 0 0
BITMAP
0000
0000
0000
0000
0000
0000
0000
0000
F0F0
F0F0
F0F0
F0F0
0F0F
0F0F
0F0F
0F0F
ENDCHAR
STARTCHAR U+2310
ENCODING 8976
SWIDTH 1600 0
DWIDTH 16 0
BBX 16 16 0 0
BITMAP
FFFF
FFFF
FFFC
FFFC
FFF0
FFF0
FFC0
FFC0
FF00
FF00
FC00
FC00
F000
F000
C000
C000
ENDCHAR
STARTCHAR U+00AC
ENCODING 172
SWIDTH 1600 0
DWIDTH 16 0
BBX 16 16 0 0
BITMAP
000F
000F
000F
000F
000F
000F
000F
000F
000F
000F
000F
000F
000F
000F
000F
000F
ENDCHAR
STARTCHAR U+00BD
ENCODING 189
SWIDTH 1600 0
DWIDTH 16 0
BBX 16 16 0 0
BITMAP
03C0
03C0
03C0
03C0
03C0
03C0
03FF
03FF
03FF
03FF
03C0
03C0
03C0
03C0
03C0
03C0
ENDCHAR
STARTCHAR U+00BC
ENCODING 188
SWIDTH 1600 0
DWIDTH 16 0
BBX 16 16 0 0
BITMAP
0000
0000
0000
0000
0000
0000
0000
0000
00FF
00FF
00FF
00FF
00FF
00FF
00FF
00FF
ENDCHAR
STARTCHAR U+00A1
ENCODING 161
SWIDTH 1600 0
DWIDTH 16 0
BBX 16 16 0 0
BITMAP
03C0
03C0
03C0
03C0
03C0
03C0
03FF
03FF
03FF
03FF
0000
0000
0000
0000
0000
0000
ENDCHAR
STARTCHAR U+00AB
ENCODING 171
SWIDTH 1600 0
DWIDTH 16 0
BBX 16 16 0 0
BITMAP
0000
0000
0000
0000
0000
0000
FFC0
FFC0
FFC0
FFC0
03C0
03C0
03C0
03C0
03C0
03C0
ENDCHAR
STARTCHAR U+00BB
ENCODING 187
SWIDTH 1600 0
DWIDTH 16 0
BBX 16 16 0 0
BITMAP
0000
0000
0000
0000
0000
0000
0000
0000
0000
0000
0000
0000
FFFF
FFFF
FFFF
FFFF
ENDCHAR
STARTCHAR U+2591
ENCODING 9617
SWIDTH 1600 0
DWIDTH 16 0
BBX 16 16 0 0
BITMAP
0000
0000
0000
0000
0000
0000
03FF
03FF
03FF
03FF
03C0
03C0
03C0
03C0
03C0
03C0
ENDCHAR
STARTCHAR U+2592
ENCODING 9618
SWIDTH 1600 0
DWIDTH 16 0
BBX 16 16 0 0
BITMAP
03C0
03C0
03C0
03C0
03C0
03C0
FFFF
FFFF
FFFF
FFFF
0000
0000
0000
0000
0000
0000
ENDCHAR
STARTCHAR U+2593
ENCODING 9619
SWIDTH 1600 0
DWIDTH 16 0
BBX 16 16 0 0
BITMAP
0000
0000
0000
0000
0000
0000
FFFF
FFFF
FFFF
FFFF
03C0
03C0
03C0
03C0
03C0
03C0
ENDCHAR
STARTCHAR U+2502
ENCODING 9474
SWIDTH 1600 0
DWIDTH 16 0
BBX 16 16 0 0
BITMAP
03C0
03C0
03C0
03C0
03C0
03C0
FFC0
FFC0
FFC0
FFC0
03C0
03C0
03C0
03C0
03C0
03C0
ENDCHAR
STARTCHAR U+2524
ENCODING 9508
SWIDTH 1600 0
DWIDTH 16 0
BBX 16 16 0 0
BITMAP
F000
F000
F000
F000
F000
F000
F000
F000
F000
F000
F000
F000
F000
F000
F000
F000
ENDCHAR
STARTCHAR U+2561
ENCODING 9569
SWIDTH 1600 0
DWIDTH 16 0
BBX 16 16 0 0
BITMAP
FC00
FC00
FC00
FC00
FC00
FC00
FC00
FC00
FC00
FC00
FC00
FC00
FC00
FC00
FC00
FC00
ENDCHAR
STARTCHAR U+2562
ENCODING 9570
SWIDTH 1600 0
DWIDTH 16 0
BBX 16 16 0 0
BITMAP
003F
003F
003F
003F
003F
003F
003F
003F
003F
003F
003F
003F
003F
003F
003F
003F
ENDCHAR
STARTCHAR U+2556
ENCODING 9558
SWIDTH 1600 0
DWIDTH 16 0
BBX 16 16 0 0
BITMAP
FFFF
FFFF
FFFF
FFFF
0000
0000
0000
0000
0000
0000
0000
0000
0000
0000
0000
0000
ENDCHAR
STARTCHAR U+2555
ENCODING 9557
SWIDTH 1600 0
DWIDTH 16 0
BBX 16 16 0 0
BITMAP
FFFF
FFFF
FFFF
FFFF
FFFF
FFFF
0000
0000
0000
0000
0000
0000
0000
0000
0000
0000
ENDCHAR
STARTCHAR U+2563
ENCODING 9571
SWIDTH 1600 0
DWIDTH 16 0
BBX 16 16 0 0
BITMAP
0000
0000
0000
0000
0000
0000
0000
0000
0000
0000
FFFF
FFFF
FFFF
FFFF
FFFF
FFFF
ENDCHAR
STARTCHAR U+2551
ENCODING 9553
SWIDTH 1600 0
DWIDTH 16 0
BBX 16 16 0 0
BITMAP
000F
000F
000F
000F
000F
000F
000F
000F
000F
000F
000F
000F
FFFF
FFFF
FFFF
FFFF
ENDCHAR
STARTCHAR U+2557
ENCODING 9559
SWIDTH 1600 0
DWIDTH 16 0
BBX 16 16 0 0
BITMAP
0000
0000
0000
0000
0000
0000
0000
0000
FF00
FF00
FF00
FF00
FF00
FF00
FF00
FF00
ENDCHAR
STARTCHAR U+255D
ENCODING 9565
SWIDTH 1600 0
DWIDTH 16 0
BBX 16 16 0 0
BITMAP
00FF
00FF
00FF
00FF
00FF
00FF
00FF
00FF
0000
0000
0000
0000
0000
0000
0000
0000
ENDCHAR
STARTCHAR U+255C
ENCODING 9564
SWIDTH 1600 0
DWIDTH 16 0
BBX 16 16 0 0
BITMAP
03C0
03C0
03C0
03C0
03C0
03C0
FFC0
FFC0
FFC0
FFC0
0000
0000
0000
0000
0000
0000
ENDCHAR
STARTCHAR U+255B
ENCODING 9563
SWIDTH 1600 0
DWIDTH 16 0
BBX 16 16 0 0
BITMAP
FF00
FF00
FF00
FF00
FF00
FF00
FF00
FF00
0000
0000
0000
0000
0000
0000
0000
0000
ENDCHAR
STARTCHAR U+2510
ENCODING 9488
SWIDTH 1600 0
DWIDTH 16 0
BBX 16 16 0 0
BITMAP
FF00
FF00
FF00
FF00
FF00
FF00
FF00
FF00
00FF
00FF
00FF
00FF
00FF
00FF
00FF
00FF
ENDCHAR
STARTCHAR U+2514
ENCODING 9492
SWIDTH 1600 0
DWIDTH 16 0
BBX 16 16 0 0
BITMAP
0000
0000
3FFF
3FFF
3003
3003
3003
3003
3003
3003
3003
3003
3003
3003
3FFF
3FFF
ENDCHAR
STARTCHAR U+2534
ENCODING 9524
SWIDTH 1600 0
DWIDTH 16 0
BBX 16 16 0 0
BITMAP
0000
0000
3FFF
3FFF
3FFF
3FFF
3FFF
3FFF
3FFF
3FFF
3FFF
3FFF
3FFF
3FFF
3FFF
3FFF
ENDCHAR
STARTCHAR U+252C
ENCODING 9516
SWIDTH 1600 0
DWIDTH 16 0
BBX 16 16 0 0
BITMAP
0000
0000
03C0
03C0
0FF0
0FF0
3FFC
3FFC
03C0
03C0
03C0
03C0
03C0
03C0
03C0
03C0
ENDCHAR
STARTCHAR U+251C
ENCODING 9500
SWIDTH 1600 0
DWIDTH 16 0
BBX 16 16 0 0
BITMAP
0000
0000
03C0
03C0
03C0
03C0
03C0
03C0
03C0
03C0
3FFC
3FFC
0FF0
0FF0
03C0
03C0
ENDCHAR
STARTCHAR U+2500
ENCODING 9472
SWIDTH 1600 0
DWIDTH 16 0
BBX 16 16 0 0
BITMAP
0000
0000
0300
0300
0F00
0F00
3FFF
3FFF
3FFF
3FFF
0F00
0F00
0300
0300
0000
0000
ENDCHAR
STARTCHAR U+253C
ENCODING 9532
SWIDTH 1600 0
DWIDTH 16 0
BBX 16 16 0 0
BITMAP
0000
0000
0030
0030
003C
003C
3FFF
3FFF
3FFF
3FFF
003C
003C
0030
0030
0000
0000
ENDCHAR
STARTCHAR U+255E
ENCODING 9566
SWIDTH 1600 0
DWIDTH 16 0
BBX 16 16 0 0
BITMAP
3FFC
3FFC
C003
C003
CC33
CC33
C003
C003
C3F3
C3F3
CFC3
CFC3
C003
C003
3FFC
3FFC
ENDCHAR
STARTCHAR U+255F
ENCODING 9567
SWIDTH 1600 0
DWIDTH 16 0
BBX 16 16 0 0
BITMAP
3FFC
3FFC
C003
C003
CC33
CC33
C003
C003
CC33
CC33
CFF3
CFF3
C003
C003
3FFC
3FFC
ENDCHAR
STARTCHAR U+255A
ENCODING 9562
SWIDTH 1600 0
DWIDTH 16 0
BBX 16 16 0 0
BITMAP
3FFC
3FFC
C003
C003
CC33
CC33
C003
C003
CFF3
CFF3
CC33
CC33
C003
C003
3FFC
3FFC
ENDCHAR
STARTCHAR U+2554
ENCODING 9556
SWIDTH 1600 0
DWIDTH 16 0
BBX 16 16 0 0
BITMAP
3FFC
3FFC
003C
003C
00F0
00F0
03C0
03C0
0F00
0F00
3C00
3C00
3FFC
3FFC
0000
0000
ENDCHAR
STARTCHAR U+2569
ENCODING 9577
SWIDTH 1600 0
DWIDTH 16 0
BBX 16 16 0 0
BITMAP
03C0
03C0
03C0
03C0
03C0
03C0
FFFF
FFFF
FFFF
FFFF
03C0
03C0
03C0
03C0
03C0
03C0
ENDCHAR
STARTCHAR U+2566
ENCODING 9574
SWIDTH 1600 0
DWIDTH 16 0
BBX 16 16 0 0
BITMAP
F000
F000
F000
F000
0F00
0F00
0F00
0F00
F000
F000
F000
F000
0F00
0F00
0F00
0F00
ENDCHAR
STARTCHAR U+2560
ENCODING 9568
SWIDTH 1600 0
DWIDTH 16 0
BBX 16 16 0 0
BITMAP
03C0
03C0
03C0
03C0
03C0
03C0
03C0
03C0
03C0
03C0
03C0
03C0
03C0
03C0
03C0
03C0
ENDCHAR
STARTCHAR U+2550
ENCODING 9552
SWIDTH 1600 0
DWIDTH 16 0
BBX 16 16 0 0
BITMAP
0F0F
0F0F
0F0F
0F0F
F0F0
F0F0
F0F0
F0F0
0F0F
0F0F
0F0F
0F0F
F0F0
F0F0
F0F0
F0F0
ENDCHAR
STARTCHAR U+256C
ENCODING 9580
SWIDTH 1600 0
DWIDTH 16 0
BBX 16 16 0 0
BITMAP
0F0F
0F0F
C3C3
C3C3
F0F0
F0F0
3C3C
3C3C
0F0F
0F0F
C3C3
C3C3
F0F0
F0F0
3C3C
3C3C
ENDCHAR
STARTCHAR U+2567
ENCODING 9575
SWIDTH 1600 0
DWIDTH 16 0
BBX 16 16 0 0
BITMAP
0000
0000
0000
0000
0000
0000
0000
0000
0000
0000
0000
0000
0000
0000
0000
0000
ENDCHAR
STARTCHAR U+2568
ENCODING 9576
SWIDTH 1600 0
DWIDTH 16 0
BBX 16 16 0 0
BITMAP
FF00
FF00
FF00
FF00
FF00
FF00
FF00
FF00
FF00
FF00
FF00
FF00
FF00
FF00
FF00
FF00
ENDCHAR
STARTCHAR U+2564
ENCODING 9572
SWIDTH 1600 0
DWIDTH 16 0
BBX 16 16 0 0
BITMAP
0000
0000
0000
0000
0000
0000
0000
0000
FFFF
FFFF
FFFF
FFFF
FFFF
FFFF
FFFF
FFFF
ENDCHAR
STARTCHAR U+2565
ENCODING 9573
SWIDTH 1600 0
DWIDTH 16 0
BBX 16 16 0 0
BITMAP
FFFF
FFFF
0000
0000
0000
0000
0000
0000
0000
0000
0000
0000
0000
0000
0000
0000
ENDCHAR
STARTCHAR U+2559
ENCODING 9561
SWIDTH 1600 0
DWIDTH 16 0
BBX 16 16 0 0
BITMAP
0000
0000
0000
0000
0000
0000
0000
0000
0000
0000
0000
0000
0000
0000
FFFF
FFFF
ENDCHAR
STARTCHAR U+2558
ENCODING 9560
SWIDTH 1600 0
DWIDTH 16 0
BBX 16 16 0 0
BITMAP
F000
F000
F000
F000
F000
F000
F000
F000
F000
F000
F000
F000
F000
F000
F000
F000
ENDCHAR
STARTCHAR U+2552
ENCODING 9554
SWIDTH 1600 0
DWIDTH 16 0
BBX 16 16 0 0
BITMAP
F0F0
F0F0
F0F0
F0F0
0F0F
0F0F
0F0F
0F0F
F0F0
F0F0
F0F0
F0F0
0F0F
0F0F
0F0F
0F0F
ENDCHAR
STARTCHAR U+2553
ENCODING 9555
SWIDTH 1600 0
DWIDTH 16 0
BBX 16 16 0 0
BITMAP
000F
000F
000F
000F
000F
000F
000F
000F
000F
000F
000F
000F
000F
000F
000F
000F
ENDCHAR
STARTCHAR U+256B
ENCODING 9579
SWIDTH 1600 0
DWIDTH 16 0
BBX 16 16 0 0
BITMAP
0000
0000
0000
0000
0000
0000
0000
0000
F0F0
F0F0
F0F0
F0F0
0F0F
0F0F
0F0F
0F0F
ENDCHAR
STARTCHAR U+256A
ENCODING 9578
SWIDTH 1600 0
DWIDTH 16 0
BBX 16 16 0 0
BITMAP
F0F0
F0F0
C3C3
C3C3
0F0F
0F0F
3C3C
3C3C
F0F0
F0F0
C3C3
C3C3
0F0F
0F0F
3C3C
3C3C
ENDCHAR
STARTCHAR U+2518
ENCODING 9496
SWIDTH 1600 0
DWIDTH 16 0
BBX 16 16 0 0
BITMAP
000F
000F
000F
000F
000F
000F
000F
000F
000F
000F
000F
000F
000F
000F
000F
000F
ENDCHAR
STARTCHAR U+250C
ENCODING 9484
SWIDTH 1600 0
DWIDTH 16 0
BBX 16 16 0 0
BITMAP
03C0
03C0
03C0
03C0
03C0
03C0
03FF
03FF
03FF
03FF
03C0
03C0
03C0
03C0
03C0
03C0
ENDCHAR
STARTCHAR U+2588
ENCODING 9608
SWIDTH 1600 0
DWIDTH 16 0
BBX 16 16 0 0
BITMAP
0000
0000
0000
0000
0000
0000
0000
0000
00FF
00FF
00FF
00FF
00FF
00FF
00FF
00FF
ENDCHAR
STARTCHAR U+2584
ENCODING 9604
SWIDTH 1600 0
DWIDTH 16 0
BBX 16 16 0 0
BITMAP
03C0
03C0
03C0
03C0
03C0
03C0
03FF
03FF
03FF
03FF
0000
0000
0000
0000
0000
0000
ENDCHAR
STARTCHAR U+258C
ENCODING 9612
SWIDTH 1600 0
DWIDTH 16 0
BBX 16 16 0 0
BITMAP
0000
0000
0000
0000
0000
0000
FFC0
FFC0
FFC0
FFC0
03C0
03C0
03C0
03C0
03C0
03C0
ENDCHAR
STARTCHAR U+2590
ENCODING 9616
SWIDTH 1600 0
DWIDTH 16 0
BBX 16 16 0 0
BITMAP
0000
0000
0000
0000
0000
0000
0000
0000
0000
0000
0000
0000
FFFF
FFFF
FFFF
FFFF
ENDCHAR
STARTCHAR U+2580
ENCODING 9600
SWIDTH 1600 0
DWIDTH 16 0
BBX 16 16 0 0
BITMAP
0000
0000
0000
0000
0000
0000
03FF
03FF
03FF
03FF
03C0
03C0
03C0
03C0
03C0
03C0
ENDCHAR
STARTCHAR U+03B1
ENCODING 945
SWIDTH 1600 0
DWIDTH 16 0
BBX 16 16 0 0
BITMAP
03C0
03C0
03C0
03C0
03C0
03C0
FFFF
FFFF
FFFF
FFFF
0000
0000
0000
0000
0000
0000
ENDCHAR
STARTCHAR U+00DF
ENCODING 223
SWIDTH 1600 0
DWIDTH 16 0
BBX 16 16 0 0
BITMAP
0000
0000
0000
0000
0000
0000
FFFF
FFFF
FFFF
FFFF
03C0
03C0
03C0
03C0
03C0
03C0
ENDCHAR
STARTCHAR U+0393
ENCODING 915
SWIDTH 1600 0
DWIDTH 16 0
BBX 16 16 0 0
BITMAP
03C0
03C0
03C0
03C0
03C0
03C0
FFC0
FFC0
FFC0
FFC0
03C0
03C0
03C0
03C0
03C0
03C0
ENDCHAR
STARTCHAR U+03C0
ENCODING 960
SWIDTH 1600 0
DWIDTH 16 0
BBX 16 16 0 0
BITMAP
F000
F000
F000
F000
F000
F000
F000
F000
F000
F000
F000
F000
F000
F000
F000
F000
ENDCHAR
STARTCHAR U+03A3
ENCODING 931
SWIDTH 1600 0
DWIDTH 16 0
BBX 16 16 0 0
BITMAP
FC00
FC00
FC00
FC00
FC00
FC00
FC00
FC00
FC00
FC00
FC00
FC00
FC00
FC00
FC00
FC00
ENDCHAR
STARTCHAR U+03C3
ENCODING 963
SWIDTH 1600 0
DWIDTH 16 0
BBX 16 16 0 0
BITMAP
003F
003F
003F
003F
003F
003F
003F
003F
003F
003F
003F
003F
003F
003F
003F
003F
ENDCHAR
STARTCHAR U+00B5
ENCODING 181
SWIDTH 1600 0
DWIDTH 16 0
BBX 16 16 0 0
BITMAP
FFFF
FFFF
FFFF
FFFF
0000
0000
0000
0000
0000
0000
0000
0000
0000
0000
0000
0000
ENDCHAR
STARTCHAR U+03C4
ENCODING 964
SWIDTH 1600 0
DWIDTH 16 0
BBX 16 16 0 0
BITMAP
FFFF
FFFF
FFFF
FFFF
FFFF
FFFF
0000
0000
0000
0000
0000
0000
0000
0000
0000
0000
ENDCHAR
STARTCHAR U+03A6
ENCODING 934
SWIDTH 1600 0
DWIDTH 16 0
BBX 16 16 0 0
BITMAP
0000
0000
0000
0000
0000
0000
0000
0000
0000
0000
FFFF
FFFF
FFFF
FFFF
FFFF
FFFF
ENDCHAR
STARTCHAR U+0398
ENCODING 920
SWIDTH 1600 0
DWIDTH 16 0
BBX 16 16 0 0
BITMAP
0003
0003
000F
000F
003C
003C
3CF0
3CF0
3FC0
3FC0
3F00
3F00
3C00
3C00
0000
0000
ENDCHAR
STARTCHAR U+03A9
ENCODING 937
SWIDTH 1600 0
DWIDTH 16 0
BBX 16 16 0 0
BITMAP
0000
0000
0000
0000
0000
0000
0000
0000
FF00
FF00
FF00
FF00
FF00
FF00
FF00
FF00
ENDCHAR
STARTCHAR U+03B4
ENCODING 948
SWIDTH 1600 0
DWIDTH 16 0
BBX 16 16 0 0
BITMAP
00FF
00FF
00FF
00FF
00FF
00FF
00FF
00FF
0000
0000
0000
0000
0000
0000
0000
0000
ENDCHAR
STARTCHAR U+221E
ENCODING 8734
SWIDTH 1600 0
DWIDTH 16 0
BBX 16 16 0 0
BITMAP
03C0
03C0
03C0
03C0
03C0
03C0
FFC0
FFC0
FFC0
FFC0
0000
0000
0000
0000
0000
0000
ENDCHAR
STARTCHAR U+03C6
ENCODING 966
SWIDTH 1600 0
DWIDTH 16 0
BBX 16 16 0 0
BITMAP
FF00
FF00
FF00
FF00
FF00
FF00
FF00
FF00
0000
0000
0000
0000
0000
0000
0000
0000
ENDCHAR
STARTCHAR U+03B5
ENCODING 949
SWIDTH 1600 0
DWIDTH 16 0
BBX 16 16 0 0
BITMAP
FF00
FF00
FF00
FF00
FF00
FF00
FF00
FF00
00FF
00FF
00FF
00FF
00FF
00FF
00FF
00FF
ENDCHAR
STARTCHAR U+2229
ENCODING 8745
SWIDTH 1600 0
DWIDTH 16 0
BBX 16 16 0 0
BITMAP
0000
0000
0300
0300
0300
0300
0300
0300
0300
0300
0300
0300
0300
0300
0000
0000
ENDCHAR
STARTCHAR U+2261
ENCODING 8801
SWIDTH 1600 0
DWIDTH 16 0
BBX 16 16 0 0
BITMAP
00C0
00C0
0330
0330
0C0C
0C0C
3003
3003
3003
3003
0330
0330
0FFC
0FFC
0000
0000
ENDCHAR
STARTCHAR U+00B1
ENCODING 177
SWIDTH 1600 0
DWIDTH 16 0
BBX 16 16 0 0
BITMAP
0F3C
0F3C
30C3
30C3
3003
3003
3003
3003
0C0C
0C0C
0330
0330
00C0
00C0
0000
0000
ENDCHAR
STARTCHAR U+2265
ENCODING 8805
SWIDTH 1600 0
DWIDTH 16 0
BBX 16 16 0 0
BITMAP
03C0
03C0
03C0
03C0
3FFC
3FFC
3FFC
3FFC
03C0
03C0
03C0
03C0
0FF0
0FF0
0000
0000
ENDCHAR
STARTCHAR U+2264
ENCODING 8804
SWIDTH 1600 0
DWIDTH 16 0
BBX 16 16 0 0
BITMAP
00C0
00C0
0330
0330
0C0C
0C0C
3003
3003
0C0C
0C0C
0330
0330
00C0
00C0
0000
0000
ENDCHAR
STARTCHAR U+2320
ENCODING 8992
SWIDTH 1600 0
DWIDTH 16 0
BBX 16 16 0 0
BITMAP
3FFC
3FFC
FF3F
FF3F
FC3F
FC3F
FF3F
FF3F
FF3F
FF3F
FF3F
FF3F
FC0F
FC0F
3FFC
3FFC
ENDCHAR
STARTCHAR U+2321
ENCODING 8993
SWIDTH 1600 0
DWIDTH 16 0
BBX 16 16 0 0
BITMAP
3FFC
3FFC
FC3F
FC3F
F3CF
F3CF
FFCF
FFCF
FF3F
FF3F
FCFF
FCFF
F00F
F00F
3FFC
3FFC
ENDCHAR
STARTCHAR U+00F7
ENCODING 247
SWIDTH 1600 0
DWIDTH 16 0
BBX 16 16 0 0
BITMAP
3FFC
3FFC
C03F
C03F
FFCF
FFCF
F03F
F03F
FFCF
FFCF
FFCF
FFCF
C03F
C03F
3FFC
3FFC
ENDCHAR
STARTCHAR U+2248
ENCODING 8776
SWIDTH 1600 0
DWIDTH 16 0
BBX 16 16 0 0
BITMAP
3FFC
3FFC
FFCF
FFCF
FF0F
FF0F
FCCF
FCCF
F3CF
F3CF
C003
C003
FFCF
FFCF
3FFC
3FFC
ENDCHAR
STARTCHAR U+00B0
ENCODING 176
SWIDTH 1600 0
DWIDTH 16 0
BBX 16 16 0 0
BITMAP
3FFC
3FFC
C00F
C00F
CFFF
CFFF
C03F
C03F
FFCF
FFCF
FFCF
FFCF
C03F
C03F
3FFC
3FFC
ENDCHAR
STARTCHAR U+2219
ENCODING 8729
SWIDTH 1600 0
DWIDTH 16 0
BBX 16 16 0 0
BITMAP
3FFC
3FFC
F03F
F03F
CFFF
CFFF
C03F
C03F
CFCF
CFCF
CFCF
CFCF
F03F
F03F
3FFC
3FFC
ENDCHAR
STARTCHAR U+00B7
ENCODING 183
SWIDTH 1600 0
DWIDTH 16 0
BBX 16 16 0 0
BITMAP
3FFC
3FFC
C00F
C00F
CFCF
CFCF
FF3F
FF3F
FF3F
FF3F
FCFF
FCFF
FCFF
FCFF
3FFC
3FFC
ENDCHAR
STARTCHAR U+221A
ENCODING 8730
SWIDTH 1600 0
DWIDTH 16 0
BBX 16 16 0 0
BITMAP
3FFC
3FFC
F00F
F00F
C3C3
C3C3
F00F
F00F
C3C3
C3C3
C3C3
C3C3
F00F
F00F
3FFC
3FFC
ENDCHAR
STARTCHAR U+207F
ENCODING 8319
SWIDTH 1600 0
DWIDTH 16 0
BBX 16 16 0 0
BITMAP
3FFC
3FFC
F03F
F03F
CFCF
CFCF
CFCF
CFCF
F00F
F00F
FFCF
FFCF
F03F
F03F
3FFC
3FFC
ENDCHAR
STARTCHAR U+00B2
ENCODING 178
SWIDTH 1600 0
DWIDTH 16 0
BBX 16 16 0 0
BITMAP
3FFC
3FFC
F00F
F00F
CFC3
CFC3
CF33
CF33
CCF3
CCF3
C3F3
C3F3
F00F
F00F
3FFC
3FFC
ENDCHAR
STARTCHAR U+25A0
ENCODING 9632
SWIDTH 1600 0
DWIDTH 16 0
BBX 16 16 0 0
BITMAP
CCCC
CCCC
CCCC
CCCC
CCCC
CCCC
CCCC
CCCC
CCCC
CCCC
CCCC
CCCC
CCCC
CCCC
CCCC
CCCC
ENDCHAR
STARTCHAR U+0020
ENCODING 32
SWIDTH 1600 0
DWIDTH 16 0
BBX 16 16 0 0
BITMAP
FFFF
FFFF
0000
0000
FFFF
FFFF
0000
0000
FFFF
FFFF
0000
0000
FFFF
FFFF
0000
0000
ENDCHAR
ENDFONT
