STARTFONT 2.1
COMMENT /*
COMMENT  * A 8x8 fixed-width font based on the Commodore 64 character set
COMMENT  * Generated by Quadventure by Softintheheadware
COMMENT  */
FONT -Softintheheadware-Quadventure-Medium-R-Normal--8-80-72-72-M-80-ISO8859-1
SIZE 8 72 72
FONTBOUNDINGBOX 8 8 0 0
STARTPROPERTIES 2
FONT_ASCENT 8
FONT_DESCENT 0
ENDPROPERTIES
CHARS 256
STARTCHAR U+0020
ENCODING 32
SWIDTH 800 0
DWIDTH 8 0
BBX 8 8 0 0
BITMAP
00
00
00
00
00
00
00
00
ENDCHAR
STARTCHAR U+263A
ENCODING 9786
SWIDTH 800 0
DWIDTH 8 0
BBX 8 8 0 0
BITMAP
00
00
00
00
00
00
00
00
ENDCHAR
STARTCHAR U+263B
ENCODING 9787
SWIDTH 800 0
DWIDTH 8 0
BBX 8 8 0 0
BITMAP
00
00
00
00
00
00
00
00
ENDCHAR
STARTCHAR U+2665
ENCODING 9829
SWIDTH 800 0
DWIDTH 8 0
BBX 8 8 0 0
BITMAP
00
00
00
00
00
00
00
00
ENDCHAR
STARTCHAR U+2666
ENCODING 9830
SWIDTH 800 0
DWIDTH 8 0
BBX 8 8 0 0
BITMAP
00
00
00
00
00
00
00
00
ENDCHAR
STARTCHAR U+2663
ENCODING 9827
SWIDTH 800 0
DWIDTH 8 0
BBX 8 8 0 0
BITMAP
00
00
00
00
00
00
00
00
ENDCHAR
STARTCHAR U+2660
ENCODING 9824
SWIDTH 800 0
DWIDTH 8 0
BBX 8 8 0 0
BITMAP
00
00
00
00
00
00
00
00
ENDCHAR
STARTCHAR U+2022
ENCODING 8226
SWIDTH 800 0
DWIDTH 8 0
BBX 8 8 0 0
BITMAP
00
00
00
00
00
00
00
00
ENDCHAR
STARTCHAR U+25D8
ENCODING 9688
SWIDTH 800 0
DWIDTH 8 0
BBX 8 8 0 0
BITMAP
00
00
00
00
00
00
00
00
ENDCHAR
STARTCHAR U+25CB
ENCODING 9675
SWIDTH 800 0
DWIDTH 8 0
BBX 8 8 0 0
BITMAP
00
00
00
00
00
00
00
00
ENDCHAR
STARTCHAR U+25D9
ENCODING 9689
SWIDTH 800 0
DWIDTH 8 0
BBX 8 8 0 0
BITMAP
00
00
00
00
00
00
00
00
ENDCHAR
STARTCHAR U+2642
ENCODING 9794
SWIDTH 800 0
DWIDTH 8 0
BBX 8 8 0 0
BITMAP
00
00
00
00
00
00
00
00
ENDCHAR
STARTCHAR U+2640
ENCODING 9792
SWIDTH 800 0
DWIDTH 8 0
BBX 8 8 0 0
BITMAP
00
00
00
00
00
00
00
00
ENDCHAR
STARTCHAR U+266A
ENCODING 9834
SWIDTH 800 0
DWIDTH 8 0
BBX 8 8 0 0
BITMAP
00
00
00
00
00
00
00
00
ENDCHAR
STARTCHAR U+266B
ENCODING 9835
SWIDTH 800 0
DWIDTH 8 0
BBX 8 8 0 0
BITMAP
00
00
00
00
00
00
00
00
ENDCHAR
STARTCHAR U+263C
ENCODING 9788
SWIDTH 800 0
DWIDTH 8 0
BBX 8 8 0 0
BITMAP
00
00
00
00
00
00
00
00
ENDCHAR
STARTCHAR U+25BA
ENCODING 9658
SWIDTH 800 0
DWIDTH 8 0
BBX 8 8 0 0
BITMAP
00
00
00
00
00
00
00
00
ENDCHAR
STARTCHAR U+25C4
ENCODING 9668
SWIDTH 800 0
DWIDTH 8 0
BBX 8 8 0 0
BITMAP
00
00
00
00
00
00
00
00
ENDCHAR
STARTCHAR U+2195
ENCODING 8597
SWIDTH 800 0
DWIDTH 8 0
BBX 8 8 0 0
BITMAP
00
00
00
00
00
00
00
00
ENDCHAR
STARTCHAR U+203C
ENCODING 8252
SWIDTH 800 0
DWIDTH 8 0
BBX 8 8 0 0
BITMAP
00
00
00
00
00
00
00
00
ENDCHAR
STARTCHAR U+00B6
ENCODING 182
SWIDTH 800 0
DWIDTH 8 0
BBX 8 8 0 0
BITMAP
00
00
00
00
00
00
00
00
ENDCHAR
STARTCHAR U+00A7
ENCODING 167
SWIDTH 800 0
DWIDTH 8 0
BBX 8 8 0 0
BITMAP
00
00
00
00
00
00
00
00
ENDCHAR
STARTCHAR U+25AC
ENCODING 9644
SWIDTH 800 0
DWIDTH 8 0
BBX 8 8 0 0
BITMAP
00
00
00
00
00
00
00
00
ENDCHAR
STARTCHAR U+21A8
ENCODING 8616
SWIDTH 800 0
DWIDTH 8 0
BBX 8 8 0 0
BITMAP
00
00
00
00
00
00
00
00
ENDCHAR
STARTCHAR U+2191
ENCODING 8593
SWIDTH 800 0
DWIDTH 8 0
BBX 8 8 0 0
BITMAP
00
00
00
00
00
00
00
00
ENDCHAR
STARTCHAR U+2193
ENCODING 8595
SWIDTH 800 0
DWIDTH 8 0
BBX 8 8 0 0
BITMAP
00
00
00
00
00
00
00
00
ENDCHAR
STARTCHAR U+2192
ENCODING 8594
SWIDTH 800 0
DWIDTH 8 0
BBX 8 8 0 0
BITMAP
00
00
00
00
00
00
00
00
ENDCHAR
STARTCHAR U+2190
ENCODING 8592
SWIDTH 800 0
DWIDTH 8 0
BBX 8 8 0 0
BITMAP
00
00
00
00
00
00
00
00
ENDCHAR
STARTCHAR U+221F
ENCODING 8735
SWIDTH 800 0
DWIDTH 8 0
BBX 8 8 0 0
BITMAP
00
00
00
00
00
00
00
00
ENDCHAR
STARTCHAR U+2194
ENCODING 8596
SWIDTH 800 0
DWIDTH 8 0
BBX 8 8 0 0
BITMAP
00
00
00
00
00
00
00
00
ENDCHAR
STARTCHAR U+25B2
ENCODING 9650
SWIDTH 800 0
DWIDTH 8 0
BBX 8 8 0 0
BITMAP
00
00
00
00
00
00
00
00
ENDCHAR
STARTCHAR U+25BC
ENCODING 9660
SWIDTH 800 0
DWIDTH 8 0
BBX 8 8 0 0
BITMAP
00
00
00
00
00
00
00
00
ENDCHAR
STARTCHAR U+00FF
ENCODING 255
SWIDTH 800 0
DWIDTH 8 0
BBX 8 8 0 0
BITMAP
00
00
00
00
00
00
00
00
ENDCHAR
STARTCHAR U+0021
ENCODING 33
SWIDTH 800 0
DWIDTH 8 0
BBX 8 8 0 0
BITMAP
18
18
18
18
00
00
18
00
ENDCHAR
STARTCHAR U+0022
ENCODING 34
SWIDTH 800 0
DWIDTH 8 0
BBX 8 8 0 0
BITMAP
66
66
66
00
00
00
00
00
ENDCHAR
STARTCHAR U+0023
ENCODING 35
SWIDTH 800 0
DWIDTH 8 0
BBX 8 8 0 0
BITMAP
66
66
FF
66
FF
66
66
00
ENDCHAR
STARTCHAR U+0024
ENCODING 36
SWIDTH 800 0
DWIDTH 8 0
BBX 8 8 0 0
BITMAP
18
3E
60
3C
06
7C
18
00
ENDCHAR
STARTCHAR U+0025
ENCODING 37
SWIDTH 800 0
DWIDTH 8 0
BBX 8 8 0 0
BITMAP
62
66
0C
18
30
66
46
00
ENDCHAR
STARTCHAR U+0026
ENCODING 38
SWIDTH 800 0
DWIDTH 8 0
BBX 8 8 0 0
BITMAP
3C
66
3C
38
67
66
3F
00
ENDCHAR
STARTCHAR U+0027
ENCODING 39
SWIDTH 800 0
DWIDTH 8 0
BBX 8 8 0 0
BITMAP
06
0C
18
00
00
00
00
00
ENDCHAR
STARTCHAR U+0028
ENCODING 40
SWIDTH 800 0
DWIDTH 8 0
BBX 8 8 0 0
BITMAP
0C
18
30
30
30
18
0C
00
ENDCHAR
STARTCHAR U+0029
ENCODING 41
SWIDTH 800 0
DWIDTH 8 0
BBX 8 8 0 0
BITMAP
30
18
0C
0C
0C
18
30
00
ENDCHAR
STARTCHAR U+002A
ENCODING 42
SWIDTH 800 0
DWIDTH 8 0
BBX 8 8 0 0
BITMAP
00
66
3C
FF
3C
66
00
00
ENDCHAR
STARTCHAR U+002B
ENCODING 43
SWIDTH 800 0
DWIDTH 8 0
BBX 8 8 0 0
BITMAP
00
18
18
7E
18
18
00
00
ENDCHAR
STARTCHAR U+002C
ENCODING 44
SWIDTH 800 0
DWIDTH 8 0
BBX 8 8 0 0
BITMAP
00
00
00
00
00
18
18
30
ENDCHAR
STARTCHAR U+002D
ENCODING 45
SWIDTH 800 0
DWIDTH 8 0
BBX 8 8 0 0
BITMAP
00
00
00
7E
00
00
00
00
ENDCHAR
STARTCHAR U+002E
ENCODING 46
SWIDTH 800 0
DWIDTH 8 0
BBX 8 8 0 0
BITMAP
00
00
00
00
00
18
18
00
ENDCHAR
STARTCHAR U+002F
ENCODING 47
SWIDTH 800 0
DWIDTH 8 0
BBX 8 8 0 0
BITMAP
00
03
06
0C
18
30
60
00
ENDCHAR
STARTCHAR U+0030
ENCODING 48
SWIDTH 800 0
DWIDTH 8 0
BBX 8 8 0 0
BITMAP
3C
66
6E
76
66
66
3C
00
ENDCHAR
STARTCHAR U+0031
ENCODING 49
SWIDTH 800 0
DWIDTH 8 0
BBX 8 8 0 0
BITMAP
18
18
38
18
18
18
7E
00
ENDCHAR
STARTCHAR U+0032
ENCODING 50
SWIDTH 800 0
DWIDTH 8 0
BBX 8 8 0 0
BITMAP
3C
66
06
0C
30
60
7E
00
ENDCHAR
STARTCHAR U+0033
ENCODING 51
SWIDTH 800 0
DWIDTH 8 0
BBX 8 8 0 0
BITMAP
3C
66
06
1C
06
66
3C
00
ENDCHAR
STARTCHAR U+0034
ENCODING 52
SWIDTH 800 0
DWIDTH 8 0
BBX 8 8 0 0
BITMAP
06
0E
1E
66
7F
06
06
00
ENDCHAR
STARTCHAR U+0035
ENCODING 53
SWIDTH 800 0
DWIDTH 8 0
BBX 8 8 0 0
BITMAP
7E
60
7C
06
06
66
3C
00
ENDCHAR
STARTCHAR U+0036
ENCODING 54
SWIDTH 800 0
DWIDTH 8 0
BBX 8 8 0 0
BITMAP
3C
66
60
7C
66
66
3C
00
ENDCHAR
STARTCHAR U+0037
ENCODING 55
SWIDTH 800 0
DWIDTH 8 0
BBX 8 8 0 0
BITMAP
7E
66
0C
18
18
18
18
00
ENDCHAR
STARTCHAR U+0038
ENCODING 56
SWIDTH 800 0
DWIDTH 8 0
BBX 8 8 0 0
BITMAP
3C
66
66
3C
66
66
3C
00
ENDCHAR
STARTCHAR U+0039
ENCODING 57
SWIDTH 800 0
DWIDTH 8 0
BBX 8 8 0 0
BITMAP
3C
66
66
3E
06
66
3C
00
ENDCHAR
STARTCHAR U+003A
ENCODING 58
SWIDTH 800 0
DWIDTH 8 0
BBX 8 8 0 0
BITMAP
00
00
18
00
00
18
00
00
ENDCHAR
STARTCHAR U+003B
ENCODING 59
SWIDTH 800 0
DWIDTH 8 0
BBX 8 8 0 0
BITMAP
00
00
18
00
00
18
18
30
ENDCHAR
STARTCHAR U+003C
ENCODING 60
SWIDTH 800 0
DWIDTH 8 0
BBX 8 8 0 0
BITMAP
0E
18
30
60
30
18
0E
00
ENDCHAR
STARTCHAR U+003D
ENCODING 61
SWIDTH 800 0
DWIDTH 8 0
BBX 8 8 0 0
BITMAP
00
00
7E
00
7E
00
00
00
ENDCHAR
STARTCHAR U+003E
ENCODING 62
SWIDTH 800 0
DWIDTH 8 0
BBX 8 8 0 0
BITMAP
70
18
0C
06
0C
18
70
00
ENDCHAR
STARTCHAR U+003F
ENCODING 63
SWIDTH 800 0
DWIDTH 8 0
BBX 8 8 0 0
BITMAP
3C
66
06
0C
18
00
18
00
ENDCHAR
STARTCHAR U+0040
ENCODING 64
SWIDTH 800 0
DWIDTH 8 0
BBX 8 8 0 0
BITMAP
3C
66
6E
6E
60
62
3C
00
ENDCHAR
STARTCHAR U+0041
ENCODING 65
SWIDTH 800 0
DWIDTH 8 0
BBX 8 8 0 0
BITMAP
18
3C
66
7E
66
66
66
00
ENDCHAR
STARTCHAR U+0042
ENCODING 66
SWIDTH 800 0
DWIDTH 8 0
BBX 8 8 0 0
BITMAP
7C
66
66
7C
66
66
7C
00
ENDCHAR
STARTCHAR U+0043
ENCODING 67
SWIDTH 800 0
DWIDTH 8 0
BBX 8 8 0 0
BITMAP
3C
66
60
60
60
66
3C
00
ENDCHAR
STARTCHAR U+0044
ENCODING 68
SWIDTH 800 0
DWIDTH 8 0
BBX 8 8 0 0
BITMAP
78
6C
66
66
66
6C
78
00
ENDCHAR
STARTCHAR U+0045
ENCODING 69
SWIDTH 800 0
DWIDTH 8 0
BBX 8 8 0 0
BITMAP
7E
60
60
78
60
60
7E
00
ENDCHAR
STARTCHAR U+0046
ENCODING 70
SWIDTH 800 0
DWIDTH 8 0
BBX 8 8 0 0
BITMAP
7E
60
60
78
60
60
60
00
ENDCHAR
STARTCHAR U+0047
ENCODING 71
SWIDTH 800 0
DWIDTH 8 0
BBX 8 8 0 0
BITMAP
3C
66
60
6E
66
66
3C
00
ENDCHAR
STARTCHAR U+0048
ENCODING 72
SWIDTH 800 0
DWIDTH 8 0
BBX 8 8 0 0
BITMAP
66
66
66
7E
66
66
66
00
ENDCHAR
STARTCHAR U+0049
ENCODING 73
SWIDTH 800 0
DWIDTH 8 0
BBX 8 8 0 0
BITMAP
3C
18
18
18
18
18
3C
00
ENDCHAR
STARTCHAR U+004A
ENCODING 74
SWIDTH 800 0
DWIDTH 8 0
BBX 8 8 0 0
BITMAP
1E
0C
0C
0C
0C
6C
38
00
ENDCHAR
STARTCHAR U+004B
ENCODING 75
SWIDTH 800 0
DWIDTH 8 0
BBX 8 8 0 0
BITMAP
66
6C
78
70
78
6C
66
00
ENDCHAR
STARTCHAR U+004C
ENCODING 76
SWIDTH 800 0
DWIDTH 8 0
BBX 8 8 0 0
BITMAP
60
60
60
60
60
60
7E
00
ENDCHAR
STARTCHAR U+004D
ENCODING 77
SWIDTH 800 0
DWIDTH 8 0
BBX 8 8 0 0
BITMAP
63
77
7F
6B
63
63
63
00
ENDCHAR
STARTCHAR U+004E
ENCODING 78
SWIDTH 800 0
DWIDTH 8 0
BBX 8 8 0 0
BITMAP
66
76
7E
7E
6E
66
66
00
ENDCHAR
STARTCHAR U+004F
ENCODING 79
SWIDTH 800 0
DWIDTH 8 0
BBX 8 8 0 0
BITMAP
3C
66
66
66
66
66
3C
00
ENDCHAR
STARTCHAR U+0050
ENCODING 80
SWIDTH 800 0
DWIDTH 8 0
BBX 8 8 0 0
BITMAP
7C
66
66
7C
60
60
60
00
ENDCHAR
STARTCHAR U+0051
ENCODING 81
SWIDTH 800 0
DWIDTH 8 0
BBX 8 8 0 0
BITMAP
3C
66
66
66
66
3C
0E
00
ENDCHAR
STARTCHAR U+0052
ENCODING 82
SWIDTH 800 0
DWIDTH 8 0
BBX 8 8 0 0
BITMAP
7C
66
66
7C
78
6C
66
00
ENDCHAR
STARTCHAR U+0053
ENCODING 83
SWIDTH 800 0
DWIDTH 8 0
BBX 8 8 0 0
BITMAP
3C
66
60
3C
06
66
3C
00
ENDCHAR
STARTCHAR U+0054
ENCODING 84
SWIDTH 800 0
DWIDTH 8 0
BBX 8 8 0 0
BITMAP
7E
18
18
18
18
18
18
00
ENDCHAR
STARTCHAR U+0055
ENCODING 85
SWIDTH 800 0
DWIDTH 8 0
BBX 8 8 0 0
BITMAP
66
66
66
66
66
66
3C
00
ENDCHAR
STARTCHAR U+0056
ENCODING 86
SWIDTH 800 0
DWIDTH 8 0
BBX 8 8 0 0
BITMAP
66
66
66
66
66
3C
18
00
ENDCHAR
STARTCHAR U+0057
ENCODING 87
SWIDTH 800 0
DWIDTH 8 0
BBX 8 8 0 0
BITMAP
63
63
63
6B
7F
77
63
00
ENDCHAR
STARTCHAR U+0058
ENCODING 88
SWIDTH 800 0
DWIDTH 8 0
BBX 8 8 0 0
BITMAP
66
66
3C
18
3C
66
66
00
ENDCHAR
STARTCHAR U+0059
ENCODING 89
SWIDTH 800 0
DWIDTH 8 0
BBX 8 8 0 0
BITMAP
66
66
66
3C
18
18
18
00
ENDCHAR
STARTCHAR U+005A
ENCODING 90
SWIDTH 800 0
DWIDTH 8 0
BBX 8 8 0 0
BITMAP
7E
06
0C
18
30
60
7E
00
ENDCHAR
STARTCHAR U+005B
ENCODING 91
SWIDTH 800 0
DWIDTH 8 0
BBX 8 8 0 0
BITMAP
3C
30
30
30
30
30
3C
00
ENDCHAR
STARTCHAR U+005C
ENCODING 92
SWIDTH 800 0
DWIDTH 8 0
BBX 8 8 0 0
BITMAP
00
60
30
18
0C
06
03
00
ENDCHAR
STARTCHAR U+005D
ENCODING 93
SWIDTH 800 0
DWIDTH 8 0
BBX 8 8 0 0
BITMAP
3C
0C
0C
0C
0C
0C
3C
00
ENDCHAR
STARTCHAR U+005E
ENCODING 94
SWIDTH 800 0
DWIDTH 8 0
BBX 8 8 0 0
BITMAP
18
3C
66
00
00
00
00
00
ENDCHAR
STARTCHAR U+005F
ENCODING 95
SWIDTH 800 0
DWIDTH 8 0
BBX 8 8 0 0
BITMAP
00
00
00
00
00
7E
00
00
ENDCHAR
STARTCHAR U+0060
ENCODING 96
SWIDTH 800 0
DWIDTH 8 0
BBX 8 8 0 0
BITMAP
00
30
18
00
00
00
00
00
ENDCHAR
STARTCHAR U+0061
ENCODING 97
SWIDTH 800 0
DWIDTH 8 0
BBX 8 8 0 0
BITMAP
00
00
3C
06
3E
66
3E
00
ENDCHAR
STARTCHAR U+0062
ENCODING 98
SWIDTH 800 0
DWIDTH 8 0
BBX 8 8 0 0
BITMAP
00
60
60
7C
66
66
7C
00
ENDCHAR
STARTCHAR U+0063
ENCODING 99
SWIDTH 800 0
DWIDTH 8 0
BBX 8 8 0 0
BITMAP
00
00
3C
60
60
60
3C
00
ENDCHAR
STARTCHAR U+0064
ENCODING 100
SWIDTH 800 0
DWIDTH 8 0
BBX 8 8 0 0
BITMAP
00
06
06
3E
66
66
3E
00
ENDCHAR
STARTCHAR U+0065
ENCODING 101
SWIDTH 800 0
DWIDTH 8 0
BBX 8 8 0 0
BITMAP
00
00
3C
66
7E
60
3C
00
ENDCHAR
STARTCHAR U+0066
ENCODING 102
SWIDTH 800 0
DWIDTH 8 0
BBX 8 8 0 0
BITMAP
00
0E
18
3E
18
18
18
00
ENDCHAR
STARTCHAR U+0067
ENCODING 103
SWIDTH 800 0
DWIDTH 8 0
BBX 8 8 0 0
BITMAP
00
00
3E
66
66
3E
06
7C
ENDCHAR
STARTCHAR U+0068
ENCODING 104
SWIDTH 800 0
DWIDTH 8 0
BBX 8 8 0 0
BITMAP
00
60
60
7C
66
66
66
00
ENDCHAR
STARTCHAR U+0069
ENCODING 105
SWIDTH 800 0
DWIDTH 8 0
BBX 8 8 0 0
BITMAP
00
18
00
38
18
18
3C
00
ENDCHAR
STARTCHAR U+006A
ENCODING 106
SWIDTH 800 0
DWIDTH 8 0
BBX 8 8 0 0
BITMAP
00
06
00
06
06
06
06
3C
ENDCHAR
STARTCHAR U+006B
ENCODING 107
SWIDTH 800 0
DWIDTH 8 0
BBX 8 8 0 0
BITMAP
00
60
60
6C
78
6C
66
00
ENDCHAR
STARTCHAR U+006C
ENCODING 108
SWIDTH 800 0
DWIDTH 8 0
BBX 8 8 0 0
BITMAP
00
38
18
18
18
18
3C
00
ENDCHAR
STARTCHAR U+006D
ENCODING 109
SWIDTH 800 0
DWIDTH 8 0
BBX 8 8 0 0
BITMAP
00
00
66
7F
7F
6B
63
00
ENDCHAR
STARTCHAR U+006E
ENCODING 110
SWIDTH 800 0
DWIDTH 8 0
BBX 8 8 0 0
BITMAP
00
00
7C
66
66
66
66
00
ENDCHAR
STARTCHAR U+006F
ENCODING 111
SWIDTH 800 0
DWIDTH 8 0
BBX 8 8 0 0
BITMAP
00
00
3C
66
66
66
3C
00
ENDCHAR
STARTCHAR U+0070
ENCODING 112
SWIDTH 800 0
DWIDTH 8 0
BBX 8 8 0 0
BITMAP
00
00
7C
66
66
7C
60
60
ENDCHAR
STARTCHAR U+0071
ENCODING 113
SWIDTH 800 0
DWIDTH 8 0
BBX 8 8 0 0
BITMAP
00
00
3E
66
66
3E
06
06
ENDCHAR
STARTCHAR U+0072
ENCODING 114
SWIDTH 800 0
DWIDTH 8 0
BBX 8 8 0 0
BITMAP
00
00
7C
66
60
60
60
00
ENDCHAR
STARTCHAR U+0073
ENCODING 115
SWIDTH 800 0
DWIDTH 8 0
BBX 8 8 0 0
BITMAP
00
00
3E
60
3C
06
7C
00
ENDCHAR
STARTCHAR U+0074
ENCODING 116
SWIDTH 800 0
DWIDTH 8 0
BBX 8 8 0 0
BITMAP
00
18
7E
18
18
18
0E
00
ENDCHAR
STARTCHAR U+0075
ENCODING 117
SWIDTH 800 0
DWIDTH 8 0
BBX 8 8 0 0
BITMAP
00
00
66
66
66
66
3E
00
ENDCHAR
STARTCHAR U+0076
ENCODING 118
SWIDTH 800 0
DWIDTH 8 0
BBX 8 8 0 0
BITMAP
00
00
66
66
66
3C
18
00
ENDCHAR
STARTCHAR U+0077
ENCODING 119
SWIDTH 800 0
DWIDTH 8 0
BBX 8 8 0 0
BITMAP
00
00
63
6B
7F
3E
36
00
ENDCHAR
STARTCHAR U+0078
ENCODING 120
SWIDTH 800 0
DWIDTH 8 0
BBX 8 8 0 0
BITMAP
00
00
66
3C
18
3C
66
00
ENDCHAR
STARTCHAR U+0079
ENCODING 121
SWIDTH 800 0
DWIDTH 8 0
BBX 8 8 0 0
BITMAP
00
00
66
66
66
3E
0C
78
ENDCHAR
STARTCHAR U+007A
ENCODING 122
SWIDTH 800 0
DWIDTH 8 0
BBX 8 8 0 0
BITMAP
00
00
7E
0C
18
30
7E
00
ENDCHAR
STARTCHAR U+007B
ENCODING 123
SWIDTH 800 0
DWIDTH 8 0
BBX 8 8 0 0
BITMAP
1C
30
20
60
20
30
1C
00
ENDCHAR
STARTCHAR U+007C
ENCODING 124
SWIDTH 800 0
DWIDTH 8 0
BBX 8 8 0 0
BITMAP
08
08
08
08
08
08
08
00
ENDCHAR
STARTCHAR U+007D
ENCODING 125
SWIDTH 800 0
DWIDTH 8 0
BBX 8 8 0 0
BITMAP
38
0C
04
06
04
0C
38
00
ENDCHAR
STARTCHAR U+007E
ENCODING 126
SWIDTH 800 0
DWIDTH 8 0
BBX 8 8 0 0
BITMAP
00
61
92
0C
00
00
00
00
ENDCHAR
STARTCHAR U+2302
ENCODING 8962
SWIDTH 800 0
DWIDTH 8 0
BBX 8 8 0 0
BITMAP
00
00
00
00
00
00
00
00
ENDCHAR
STARTCHAR U+00C7
ENCODING 199
SWIDTH 800 0
DWIDTH 8 0
BBX 8 8 0 0
BITMAP
00
00
00
FF
FF
00
00
00
ENDCHAR
STARTCHAR U+00FC
ENCODING 252
SWIDTH 800 0
DWIDTH 8 0
BBX 8 8 0 0
BITMAP
08
1C
3E
7F
7F
1C
3E
00
ENDCHAR
STARTCHAR U+00E9
ENCODING 233
SWIDTH 800 0
DWIDTH 8 0
BBX 8 8 0 0
BITMAP
18
18
18
18
18
18
18
18
ENDCHAR
STARTCHAR U+00E2
ENCODING 226
SWIDTH 800 0
DWIDTH 8 0
BBX 8 8 0 0
BITMAP
00
00
00
FF
FF
00
00
00
ENDCHAR
STARTCHAR U+00E4
ENCODING 228
SWIDTH 800 0
DWIDTH 8 0
BBX 8 8 0 0
BITMAP
00
00
FF
FF
00
00
00
00
ENDCHAR
STARTCHAR U+00E0
ENCODING 224
SWIDTH 800 0
DWIDTH 8 0
BBX 8 8 0 0
BITMAP
00
FF
FF
00
00
00
00
00
ENDCHAR
STARTCHAR U+00E5
ENCODING 229
SWIDTH 800 0
DWIDTH 8 0
BBX 8 8 0 0
BITMAP
00
00
00
00
FF
FF
00
00
ENDCHAR
STARTCHAR U+00E7
ENCODING 231
SWIDTH 800 0
DWIDTH 8 0
BBX 8 8 0 0
BITMAP
30
30
30
30
30
30
30
30
ENDCHAR
STARTCHAR U+00EA
ENCODING 234
SWIDTH 800 0
DWIDTH 8 0
BBX 8 8 0 0
BITMAP
0C
0C
0C
0C
0C
0C
0C
0C
ENDCHAR
STARTCHAR U+00EB
ENCODING 235
SWIDTH 800 0
DWIDTH 8 0
BBX 8 8 0 0
BITMAP
00
00
00
E0
F0
38
18
18
ENDCHAR
STARTCHAR U+00E8
ENCODING 232
SWIDTH 800 0
DWIDTH 8 0
BBX 8 8 0 0
BITMAP
18
18
1C
0F
07
00
00
00
ENDCHAR
STARTCHAR U+00EF
ENCODING 239
SWIDTH 800 0
DWIDTH 8 0
BBX 8 8 0 0
BITMAP
18
18
38
F0
E0
00
00
00
ENDCHAR
STARTCHAR U+00EE
ENCODING 238
SWIDTH 800 0
DWIDTH 8 0
BBX 8 8 0 0
BITMAP
C0
C0
C0
C0
C0
C0
FF
FF
ENDCHAR
STARTCHAR U+00EC
ENCODING 236
SWIDTH 800 0
DWIDTH 8 0
BBX 8 8 0 0
BITMAP
C0
E0
70
38
1C
0E
07
03
ENDCHAR
STARTCHAR U+00C4
ENCODING 196
SWIDTH 800 0
DWIDTH 8 0
BBX 8 8 0 0
BITMAP
03
07
0E
1C
38
70
E0
C0
ENDCHAR
STARTCHAR U+00C5
ENCODING 197
SWIDTH 800 0
DWIDTH 8 0
BBX 8 8 0 0
BITMAP
FF
FF
C0
C0
C0
C0
C0
C0
ENDCHAR
STARTCHAR U+00C9
ENCODING 201
SWIDTH 800 0
DWIDTH 8 0
BBX 8 8 0 0
BITMAP
FF
FF
03
03
03
03
03
03
ENDCHAR
STARTCHAR U+00E6
ENCODING 230
SWIDTH 800 0
DWIDTH 8 0
BBX 8 8 0 0
BITMAP
00
3C
7E
7E
7E
7E
3C
00
ENDCHAR
STARTCHAR U+00C6
ENCODING 198
SWIDTH 800 0
DWIDTH 8 0
BBX 8 8 0 0
BITMAP
00
00
00
00
00
FF
FF
00
ENDCHAR
STARTCHAR U+00F4
ENCODING 244
SWIDTH 800 0
DWIDTH 8 0
BBX 8 8 0 0
BITMAP
36
7F
7F
7F
3E
1C
08
00
ENDCHAR
STARTCHAR U+00F6
ENCODING 246
SWIDTH 800 0
DWIDTH 8 0
BBX 8 8 0 0
BITMAP
60
60
60
60
60
60
60
60
ENDCHAR
STARTCHAR U+00F2
ENCODING 242
SWIDTH 800 0
DWIDTH 8 0
BBX 8 8 0 0
BITMAP
00
00
00
07
0F
1C
18
18
ENDCHAR
STARTCHAR U+00FB
ENCODING 251
SWIDTH 800 0
DWIDTH 8 0
BBX 8 8 0 0
BITMAP
C3
E7
7E
3C
3C
7E
E7
C3
ENDCHAR
STARTCHAR U+00F9
ENCODING 249
SWIDTH 800 0
DWIDTH 8 0
BBX 8 8 0 0
BITMAP
00
3C
7E
66
66
7E
3C
00
ENDCHAR
STARTCHAR U+00FF
ENCODING 255
SWIDTH 800 0
DWIDTH 8 0
BBX 8 8 0 0
BITMAP
18
18
66
66
18
18
3C
00
ENDCHAR
STARTCHAR U+00D6
ENCODING 214
SWIDTH 800 0
DWIDTH 8 0
BBX 8 8 0 0
BITMAP
06
06
06
06
06
06
06
06
ENDCHAR
STARTCHAR U+00DC
ENCODING 220
SWIDTH 800 0
DWIDTH 8 0
BBX 8 8 0 0
BITMAP
08
1C
3E
7F
3E
1C
08
00
ENDCHAR
STARTCHAR U+00A2
ENCODING 162
SWIDTH 800 0
DWIDTH 8 0
BBX 8 8 0 0
BITMAP
18
18
18
FF
FF
18
18
18
ENDCHAR
STARTCHAR U+00A3
ENCODING 163
SWIDTH 800 0
DWIDTH 8 0
BBX 8 8 0 0
BITMAP
C0
C0
30
30
C0
C0
30
30
ENDCHAR
STARTCHAR U+00A5
ENCODING 165
SWIDTH 800 0
DWIDTH 8 0
BBX 8 8 0 0
BITMAP
18
18
18
18
18
18
18
18
ENDCHAR
STARTCHAR U+20A7
ENCODING 8359
SWIDTH 800 0
DWIDTH 8 0
BBX 8 8 0 0
BITMAP
00
00
03
3E
76
36
36
00
ENDCHAR
STARTCHAR U+0192
ENCODING 402
SWIDTH 800 0
DWIDTH 8 0
BBX 8 8 0 0
BITMAP
FF
7F
3F
1F
0F
07
03
01
ENDCHAR
STARTCHAR U+00E1
ENCODING 225
SWIDTH 800 0
DWIDTH 8 0
BBX 8 8 0 0
BITMAP
00
00
00
00
00
00
00
00
ENDCHAR
STARTCHAR U+00ED
ENCODING 237
SWIDTH 800 0
DWIDTH 8 0
BBX 8 8 0 0
BITMAP
F0
F0
F0
F0
F0
F0
F0
F0
ENDCHAR
STARTCHAR U+00F3
ENCODING 243
SWIDTH 800 0
DWIDTH 8 0
BBX 8 8 0 0
BITMAP
00
00
00
00
FF
FF
FF
FF
ENDCHAR
STARTCHAR U+00FA
ENCODING 250
SWIDTH 800 0
DWIDTH 8 0
BBX 8 8 0 0
BITMAP
FF
00
00
00
00
00
00
00
ENDCHAR
STARTCHAR U+00F1
ENCODING 241
SWIDTH 800 0
DWIDTH 8 0
BBX 8 8 0 0
BITMAP
00
00
00
00
00
00
00
FF
ENDCHAR
STARTCHAR U+00D1
ENCODING 209
SWIDTH 800 0
DWIDTH 8 0
BBX 8 8 0 0
BITMAP
C0
C0
C0
C0
C0
C0
C0
C0
ENDCHAR
STARTCHAR U+00AA
ENCODING 170
SWIDTH 800 0
DWIDTH 8 0
BBX 8 8 0 0
BITMAP
CC
CC
33
33
CC
CC
33
33
ENDCHAR
STARTCHAR U+00BA
ENCODING 186
SWIDTH 800 0
DWIDTH 8 0
BBX 8 8 0 0
BITMAP
03
03
03
03
03
03
03
03
ENDCHAR
STARTCHAR U+00BF
ENCODING 191
SWIDTH 800 0
DWIDTH 8 0
BBX 8 8 0 0
BITMAP
00
00
00
00
CC
CC
33
33
ENDCHAR
STARTCHAR U+2310
ENCODING 8976
SWIDTH 800 0
DWIDTH 8 0
BBX 8 8 0 0
BITMAP
FF
FE
FC
F8
F0
E0
C0
80
ENDCHAR
STARTCHAR U+00AC
ENCODING 172
SWIDTH 800 0
DWIDTH 8 0
BBX 8 8 0 0
BITMAP
03
03
03
03
03
03
03
03
ENDCHAR
STARTCHAR U+00BD
ENCODING 189
SWIDTH 800 0
DWIDTH 8 0
BBX 8 8 0 0
BITMAP
18
18
18
1F
1F
18
18
18
ENDCHAR
STARTCHAR U+00BC
ENCODING 188
SWIDTH 800 0
DWIDTH 8 0
BBX 8 8 0 0
BITMAP
00
00
00
00
0F
0F
0F
0F
ENDCHAR
STARTCHAR U+00A1
ENCODING 161
SWIDTH 800 0
DWIDTH 8 0
BBX 8 8 0 0
BITMAP
18
18
18
1F
1F
00
00
00
ENDCHAR
STARTCHAR U+00AB
ENCODING 171
SWIDTH 800 0
DWIDTH 8 0
BBX 8 8 0 0
BITMAP
00
00
00
F8
F8
18
18
18
ENDCHAR
STARTCHAR U+00BB
ENCODING 187
SWIDTH 800 0
DWIDTH 8 0
BBX 8 8 0 0
BITMAP
00
00
00
00
00
00
FF
FF
ENDCHAR
STARTCHAR U+2591
ENCODING 9617
SWIDTH 800 0
DWIDTH 8 0
BBX 8 8 0 0
BITMAP
00
00
00
1F
1F
18
18
18
ENDCHAR
STARTCHAR U+2592
ENCODING 9618
SWIDTH 800 0
DWIDTH 8 0
BBX 8 8 0 0
BITMAP
18
18
18
FF
FF
00
00
00
ENDCHAR
STARTCHAR U+2593
ENCODING 9619
SWIDTH 800 0
DWIDTH 8 0
BBX 8 8 0 0
BITMAP
00
00
00
FF
FF
18
18
18
ENDCHAR
STARTCHAR U+2502
ENCODING 9474
SWIDTH 800 0
DWIDTH 8 0
BBX 8 8 0 0
BITMAP
18
18
18
F8
F8
18
18
18
ENDCHAR
STARTCHAR U+2524
ENCODING 9508
SWIDTH 800 0
DWIDTH 8 0
BBX 8 8 0 0
BITMAP
C0
C0
C0
C0
C0
C0
C0
C0
ENDCHAR
STARTCHAR U+2561
ENCODING 9569
SWIDTH 800 0
DWIDTH 8 0
BBX 8 8 0 0
BITMAP
E0
E0
E0
E0
E0
E0
E0
E0
ENDCHAR
STARTCHAR U+2562
ENCODING 9570
SWIDTH 800 0
DWIDTH 8 0
BBX 8 8 0 0
BITMAP
07
07
07
07
07
07
07
07
ENDCHAR
STARTCHAR U+2556
ENCODING 9558
SWIDTH 800 0
DWIDTH 8 0
BBX 8 8 0 0
BITMAP
FF
FF
00
00
00
00
00
00
ENDCHAR
STARTCHAR U+2555
ENCODING 9557
SWIDTH 800 0
DWIDTH 8 0
BBX 8 8 0 0
BITMAP
FF
FF
FF
00
00
00
00
00
ENDCHAR
STARTCHAR U+2563
ENCODING 9571
SWIDTH 800 0
DWIDTH 8 0
BBX 8 8 0 0
BITMAP
00
00
00
00
00
FF
FF
FF
ENDCHAR
STARTCHAR U+2551
ENCODING 9553
SWIDTH 800 0
DWIDTH 8 0
BBX 8 8 0 0
BITMAP
03
03
03
03
03
03
FF
FF
ENDCHAR
STARTCHAR U+2557
ENCODING 9559
SWIDTH 800 0
DWIDTH 8 0
BBX 8 8 0 0
BITMAP
00
00
00
00
F0
F0
F0
F0
ENDCHAR
STARTCHAR U+255D
ENCODING 9565
SWIDTH 800 0
DWIDTH 8 0
BBX 8 8 0 0
BITMAP
0F
0F
0F
0F
00
00
00
00
ENDCHAR
STARTCHAR U+255C
ENCODING 9564
SWIDTH 800 0
DWIDTH 8 0
BBX 8 8 0 0
BITMAP
18
18
18
F8
F8
00
00
00
ENDCHAR
STARTCHAR U+255B
ENCODING 9563
SWIDTH 800 0
DWIDTH 8 0
BBX 8 8 0 0
BITMAP
F0
F0
F0
F0
00
00
00
00
ENDCHAR
STARTCHAR U+2510
ENCODING 9488
SWIDTH 800 0
DWIDTH 8 0
BBX 8 8 0 0
BITMAP
F0
F0
F0
F0
0F
0F
0F
0F
ENDCHAR
STARTCHAR U+2514
ENCODING 9492
SWIDTH 800 0
DWIDTH 8 0
BBX 8 8 0 0
BITMAP
00
7F
41
41
41
41
41
7F
ENDCHAR
STARTCHAR U+2534
ENCODING 9524
SWIDTH 800 0
DWIDTH 8 0
BBX 8 8 0 0
BITMAP
00
7F
7F
7F
7F
7F
7F
7F
ENDCHAR
STARTCHAR U+252C
ENCODING 9516
SWIDTH 800 0
DWIDTH 8 0
BBX 8 8 0 0
BITMAP
00
18
3C
7E
18
18
18
18
ENDCHAR
STARTCHAR U+251C
ENCODING 9500
SWIDTH 800 0
DWIDTH 8 0
BBX 8 8 0 0
BITMAP
00
18
18
18
18
7E
3C
18
ENDCHAR
STARTCHAR U+2500
ENCODING 9472
SWIDTH 800 0
DWIDTH 8 0
BBX 8 8 0 0
BITMAP
00
10
30
7F
7F
30
10
00
ENDCHAR
STARTCHAR U+253C
ENCODING 9532
SWIDTH 800 0
DWIDTH 8 0
BBX 8 8 0 0
BITMAP
00
04
06
7F
7F
06
04
00
ENDCHAR
STARTCHAR U+255E
ENCODING 9566
SWIDTH 800 0
DWIDTH 8 0
BBX 8 8 0 0
BITMAP
7E
81
A5
81
9D
B9
81
7E
ENDCHAR
STARTCHAR U+255F
ENCODING 9567
SWIDTH 800 0
DWIDTH 8 0
BBX 8 8 0 0
BITMAP
7E
81
A5
81
A5
BD
81
7E
ENDCHAR
STARTCHAR U+255A
ENCODING 9562
SWIDTH 800 0
DWIDTH 8 0
BBX 8 8 0 0
BITMAP
7E
81
A5
81
BD
A5
81
7E
ENDCHAR
STARTCHAR U+2554
ENCODING 9556
SWIDTH 800 0
DWIDTH 8 0
BBX 8 8 0 0
BITMAP
7E
06
0C
18
30
60
7E
00
ENDCHAR
STARTCHAR U+2569
ENCODING 9577
SWIDTH 800 0
DWIDTH 8 0
BBX 8 8 0 0
BITMAP
18
18
18
FF
FF
18
18
18
ENDCHAR
STARTCHAR U+2566
ENCODING 9574
SWIDTH 800 0
DWIDTH 8 0
BBX 8 8 0 0
BITMAP
C0
C0
30
30
C0
C0
30
30
ENDCHAR
STARTCHAR U+2560
ENCODING 9568
SWIDTH 800 0
DWIDTH 8 0
BBX 8 8 0 0
BITMAP
18
18
18
18
18
18
18
18
ENDCHAR
STARTCHAR U+2550
ENCODING 9552
SWIDTH 800 0
DWIDTH 8 0
BBX 8 8 0 0
BITMAP
33
33
CC
CC
33
33
CC
CC
ENDCHAR
STARTCHAR U+256C
ENCODING 9580
SWIDTH 800 0
DWIDTH 8 0
BBX 8 8 0 0
BITMAP
33
99
CC
66
33
99
CC
66
ENDCHAR
STARTCHAR U+2567
ENCODING 9575
SWIDTH 800 0
DWIDTH 8 0
BBX 8 8 0 0
BITMAP
00
00
00
00
00
00
00
00
ENDCHAR
STARTCHAR U+2568
ENCODING 9576
SWIDTH 800 0
DWIDTH 8 0
BBX 8 8 0 0
BITMAP
F0
F0
F0
F0
F0
F0
F0
F0
ENDCHAR
STARTCHAR U+2564
ENCODING 9572
SWIDTH 800 0
DWIDTH 8 0
BBX 8 8 0 0
BITMAP
00
00
00
00
FF
FF
FF
FF
ENDCHAR
STARTCHAR U+2565
ENCODING 9573
SWIDTH 800 0
DWIDTH 8 0
BBX 8 8 0 0
BITMAP
FF
00
00
00
00
00
00
00
ENDCHAR
STARTCHAR U+2559
ENCODING 9561
SWIDTH 800 0
DWIDTH 8 0
BBX 8 8 0 0
BITMAP
00
00
00
00
00
00
00
FF
ENDCHAR
STARTCHAR U+2558
ENCODING 9560
SWIDTH 800 0
DWIDTH 8 0
BBX 8 8 0 0
BITMAP
C0
C0
C0
C0
C0
C0
C0
C0
ENDCHAR
STARTCHAR U+2552
ENCODING 9554
SWIDTH 800 0
DWIDTH 8 0
BBX 8 8 0 0
BITMAP
CC
CC
33
33
CC
CC
33
33
ENDCHAR
STARTCHAR U+2553
ENCODING 9555
SWIDTH 800 0
DWIDTH 8 0
BBX 8 8 0 0
BITMAP
03
03
03
03
03
03
03
03
ENDCHAR
STARTCHAR U+256B
ENCODING 9579
SWIDTH 800 0
DWIDTH 8 0
BBX 8 8 0 0
BITMAP
00
00
00
00
CC
CC
33
33
ENDCHAR
STARTCHAR U+256A
ENCODING 9578
SWIDTH 800 0
DWIDTH 8 0
BBX 8 8 0 0
BITMAP
CC
99
33
66
CC
99
33
66
ENDCHAR
STARTCHAR U+2518
ENCODING 9496
SWIDTH 800 0
DWIDTH 8 0
BBX 8 8 0 0
BITMAP
03
03
03
03
03
03
03
03
ENDCHAR
STARTCHAR U+250C
ENCODING 9484
SWIDTH 800 0
DWIDTH 8 0
BBX 8 8 0 0
BITMAP
18
18
18
1F
1F
18
18
18
ENDCHAR
STARTCHAR U+2588
ENCODING 9608
SWIDTH 800 0
DWIDTH 8 0
BBX 8 8 0 0
BITMAP
00
00
00
00
0F
0F
0F
0F
ENDCHAR
STARTCHAR U+2584
ENCODING 9604
SWIDTH 800 0
DWIDTH 8 0
BBX 8 8 0 0
BITMAP
18
18
18
1F
1F
00
00
00
ENDCHAR
STARTCHAR U+258C
ENCODING 9612
SWIDTH 800 0
DWIDTH 8 0
BBX 8 8 0 0
BITMAP
00
00
00
F8
F8
18
18
18
ENDCHAR
STARTCHAR U+2590
ENCODING 9616
SWIDTH 800 0
DWIDTH 8 0
BBX 8 8 0 0
BITMAP
00
00
00
00
00
00
FF
FF
ENDCHAR
STARTCHAR U+2580
ENCODING 9600
SWIDTH 800 0
DWIDTH 8 0
BBX 8 8 0 0
BITMAP
00
00
00
1F
1F
18
18
18
ENDCHAR
STARTCHAR U+03B1
ENCODING 945
SWIDTH 800 0
DWIDTH 8 0
BBX 8 8 0 0
BITMAP
18
18
18
FF
FF
00
00
00
ENDCHAR
STARTCHAR U+00DF
ENCODING 223
SWIDTH 800 0
DWIDTH 8 0
BBX 8 8 0 0
BITMAP
00
00
00
FF
FF
18
18
18
ENDCHAR
STARTCHAR U+0393
ENCODING 915
SWIDTH 800 0
DWIDTH 8 0
BBX 8 8 0 0
BITMAP
18
18
18
F8
F8
18
18
18
ENDCHAR
STARTCHAR U+03C0
ENCODING 960
SWIDTH 800 0
DWIDTH 8 0
BBX 8 8 0 0
BITMAP
C0
C0
C0
C0
C0
C0
C0
C0
ENDCHAR
STARTCHAR U+03A3
ENCODING 931
SWIDTH 800 0
DWIDTH 8 0
BBX 8 8 0 0
BITMAP
E0
E0
E0
E0
E0
E0
E0
E0
ENDCHAR
STARTCHAR U+03C3
ENCODING 963
SWIDTH 800 0
DWIDTH 8 0
BBX 8 8 0 0
BITMAP
07
07
07
07
07
07
07
07
ENDCHAR
STARTCHAR U+00B5
ENCODING 181
SWIDTH 800 0
DWIDTH 8 0
BBX 8 8 0 0
BITMAP
FF
FF
00
00
00
00
00
00
ENDCHAR
STARTCHAR U+03C4
ENCODING 964
SWIDTH 800 0
DWIDTH 8 0
BBX 8 8 0 0
BITMAP
FF
FF
FF
00
00
00
00
00
ENDCHAR
STARTCHAR U+03A6
ENCODING 934
SWIDTH 800 0
DWIDTH 8 0
BBX 8 8 0 0
BITMAP
00
00
00
00
00
FF
FF
FF
ENDCHAR
STARTCHAR U+0398
ENCODING 920
SWIDTH 800 0
DWIDTH 8 0
BBX 8 8 0 0
BITMAP
01
03
06
6C
78
70
60
00
ENDCHAR
STARTCHAR U+03A9
ENCODING 937
SWIDTH 800 0
DWIDTH 8 0
BBX 8 8 0 0
BITMAP
00
00
00
00
F0
F0
F0
F0
ENDCHAR
STARTCHAR U+03B4
ENCODING 948
SWIDTH 800 0
DWIDTH 8 0
BBX 8 8 0 0
BITMAP
0F
0F
0F
0F
00
00
00
00
ENDCHAR
STARTCHAR U+221E
ENCODING 8734
SWIDTH 800 0
DWIDTH 8 0
BBX 8 8 0 0
BITMAP
18
18
18
F8
F8
00
00
00
ENDCHAR
STARTCHAR U+03C6
ENCODING 966
SWIDTH 800 0
DWIDTH 8 0
BBX 8 8 0 0
BITMAP
F0
F0
F0
F0
00
00
00
00
ENDCHAR
STARTCHAR U+03B5
ENCODING 949
SWIDTH 800 0
DWIDTH 8 0
BBX 8 8 0 0
BITMAP
F0
F0
F0
F0
0F
0F
0F
0F
ENDCHAR
STARTCHAR U+2229
ENCODING 8745
SWIDTH 800 0
DWIDTH 8 0
BBX 8 8 0 0
BITMAP
00
10
10
10
10
10
10
00
ENDCHAR
STARTCHAR U+2261
ENCODING 8801
SWIDTH 800 0
DWIDTH 8 0
BBX 8 8 0 0
BITMAP
08
14
22
41
41
14
3E
00
ENDCHAR
STARTCHAR U+00B1
ENCODING 177
SWIDTH 800 0
DWIDTH 8 0
BBX 8 8 0 0
BITMAP
36
49
41
41
22
14
08
00
ENDCHAR
STARTCHAR U+2265
ENCODING 8805
SWIDTH 800 0
DWIDTH 8 0
BBX 8 8 0 0
BITMAP
18
18
7E
7E
18
18
3C
00
ENDCHAR
STARTCHAR U+2264
ENCODING 8804
SWIDTH 800 0
DWIDTH 8 0
BBX 8 8 0 0
BITMAP
08
14
22
41
22
14
08
00
ENDCHAR
STARTCHAR U+2320
ENCODING 8992
SWIDTH 800 0
DWIDTH 8 0
BBX 8 8 0 0
BITMAP
7E
F7
E7
F7
F7
F7
E3
7E
ENDCHAR
STARTCHAR U+2321
ENCODING 8993
SWIDTH 800 0
DWIDTH 8 0
BBX 8 8 0 0
BITMAP
7E
E7
DB
FB
F7
EF
C3
7E
ENDCHAR
STARTCHAR U+00F7
ENCODING 247
SWIDTH 800 0
DWIDTH 8 0
BBX 8 8 0 0
BITMAP
7E
87
FB
C7
FB
FB
87
7E
ENDCHAR
STARTCHAR U+2248
ENCODING 8776
SWIDTH 800 0
DWIDTH 8 0
BBX 8 8 0 0
BITMAP
7E
FB
F3
EB
DB
81
FB
7E
ENDCHAR
STARTCHAR U+00B0
ENCODING 176
SWIDTH 800 0
DWIDTH 8 0
BBX 8 8 0 0
BITMAP
7E
83
BF
87
FB
FB
87
7E
ENDCHAR
STARTCHAR U+2219
ENCODING 8729
SWIDTH 800 0
DWIDTH 8 0
BBX 8 8 0 0
BITMAP
7E
C7
BF
87
BB
BB
C7
7E
ENDCHAR
STARTCHAR U+00B7
ENCODING 183
SWIDTH 800 0
DWIDTH 8 0
BBX 8 8 0 0
BITMAP
7E
83
BB
F7
F7
EF
EF
7E
ENDCHAR
STARTCHAR U+221A
ENCODING 8730
SWIDTH 800 0
DWIDTH 8 0
BBX 8 8 0 0
BITMAP
7E
C3
99
C3
99
99
C3
7E
ENDCHAR
STARTCHAR U+207F
ENCODING 8319
SWIDTH 800 0
DWIDTH 8 0
BBX 8 8 0 0
BITMAP
7E
C7
BB
BB
C3
FB
C7
7E
ENDCHAR
STARTCHAR U+00B2
ENCODING 178
SWIDTH 800 0
DWIDTH 8 0
BBX 8 8 0 0
BITMAP
7E
C3
B9
B5
AD
9D
C3
7E
ENDCHAR
STARTCHAR U+25A0
ENCODING 9632
SWIDTH 800 0
DWIDTH 8 0
BBX 8 8 0 0
BITMAP
AA
AA
AA
AA
AA
AA
AA
AA
ENDCHAR
STARTCHAR U+00FF
ENCODING 255
SWIDTH 800 0
DWIDTH 8 0
BBX 8 8 0 0
BITMAP
FF
00
FF
00
FF
00
FF
00
ENDCHAR
ENDFONT
